<?xml version="1.0" standalone="no"?>
<!DOCTYPE svg PUBLIC "-//W3C//DTD SVG 20010904//EN"
 "http://www.w3.org/TR/2001/REC-SVG-20010904/DTD/svg10.dtd">
<svg version="1.0" xmlns="http://www.w3.org/2000/svg"
 width="1172.000000pt" height="1172.000000pt" viewBox="0 0 1172.000000 1172.000000"
 preserveAspectRatio="xMidYMid meet">
<metadata>
Created by potrace 1.11, written by Peter Selinger 2001-2013
</metadata>
<g transform="translate(0.000000,1172.000000) scale(0.100000,-0.100000)"
fill="#000000" stroke="none">
<path d="M0 5860 l0 -3700 5860 0 5860 0 0 3700 0 3700 -5860 0 -5860 0 0
-3700z m4930 3425 c-14 -8 -29 -14 -35 -14 -5 0 1 6 15 14 14 8 30 14 35 14 6
0 -1 -6 -15 -14z m-85 -45 c-3 -5 -11 -10 -16 -10 -6 0 -7 5 -4 10 3 6 11 10
16 10 6 0 7 -4 4 -10z m-65 -35 c0 -2 -10 -9 -22 -15 -22 -11 -22 -10 -4 4 21
17 26 19 26 11z m-50 -29 c0 -2 -8 -10 -17 -17 -16 -13 -17 -12 -4 4 13 16 21
21 21 13z m-40 -34 c0 -4 -10 -13 -22 -21 -23 -14 -23 -14 -4 8 20 22 26 25
26 13z m-60 -48 c-8 -8 -23 -20 -34 -25 -13 -7 -9 -1 9 15 34 29 43 33 25 10z
m2415 6 c3 -5 1 -10 -4 -10 -6 0 -11 5 -11 10 0 6 2 10 4 10 3 0 8 -4 11 -10z
m-2515 -105 c-18 -19 -36 -33 -38 -30 -4 4 58 65 67 65 3 0 -10 -16 -29 -35z
m-93 -114 c-28 -38 -59 -72 -67 -76 -8 -3 -3 6 11 22 14 15 36 44 50 63 19 29
47 58 56 60 2 0 -21 -31 -50 -69z m2724 52 c13 -16 12 -17 -3 -4 -10 7 -18 15
-18 17 0 8 8 3 21 -13z m33 -59 c3 -8 2 -12 -4 -9 -6 3 -10 10 -10 16 0 14 7
11 14 -7z m21 -34 c3 -5 1 -10 -4 -10 -6 0 -11 5 -11 10 0 6 2 10 4 10 3 0 8
-4 11 -10z m33 -85 c-3 -3 -9 2 -12 12 -6 14 -5 15 5 6 7 -7 10 -15 7 -18z
m20 -40 c-3 -3 -9 2 -12 12 -6 14 -5 15 5 6 7 -7 10 -15 7 -18z m-281 -87 c-3
-8 -6 -5 -6 6 -1 11 2 17 5 13 3 -3 4 -12 1 -19z m311 -3 c-3 -3 -9 2 -12 12
-6 14 -5 15 5 6 7 -7 10 -15 7 -18z m10 -40 c-3 -3 -9 2 -12 12 -6 14 -5 15 5
6 7 -7 10 -15 7 -18z m-290 -70 c-3 -3 -9 2 -12 12 -6 14 -5 15 5 6 7 -7 10
-15 7 -18z m320 -46 c-3 -8 -7 -3 -11 10 -4 17 -3 21 5 13 5 -5 8 -16 6 -23z
m10 -55 c-3 -14 -5 -12 -10 9 -3 19 -2 25 4 19 6 -6 8 -18 6 -28z m11 -64 c0
-10 -3 -8 -9 5 -12 27 -12 43 0 25 5 -8 9 -22 9 -30z m11 -44 c0 -3 -4 -8 -10
-11 -5 -3 -10 -1 -10 4 0 6 5 11 10 11 6 0 10 -2 10 -4z m-358 -48 c-8 -8 -9
-4 -5 13 4 13 8 18 11 10 2 -7 -1 -18 -6 -23z m354 -23 c-1 -13 -4 -27 -7 -30
-5 -4 -4 41 0 53 4 10 8 -2 7 -23z m-372 -39 c-3 -9 -10 -16 -15 -16 -5 0 -4
9 3 20 14 22 21 20 12 -4z m372 -31 c-1 -13 -4 -27 -7 -30 -5 -4 -4 41 0 53 4
10 8 -2 7 -23z m-386 -5 c0 -5 -5 -10 -11 -10 -5 0 -7 5 -4 10 3 6 8 10 11 10
2 0 4 -4 4 -10z m-45 -50 c-3 -5 -12 -10 -18 -10 -7 0 -6 4 3 10 19 12 23 12
15 0z m435 6 c0 -3 -4 -8 -10 -11 -5 -3 -10 -1 -10 4 0 6 5 11 10 11 6 0 10
-2 10 -4z m-480 -40 c0 -2 -8 -10 -17 -17 -16 -13 -17 -12 -4 4 13 16 21 21
21 13z m458 -68 c-5 -29 -14 -57 -20 -63 -8 -7 -9 -4 -3 10 4 11 10 39 12 63
3 23 9 42 13 42 4 0 3 -24 -2 -52z m-508 32 c-8 -5 -19 -10 -25 -10 -5 0 -3 5
5 10 8 5 20 10 25 10 6 0 3 -5 -5 -10z m-50 -20 c0 -5 -5 -10 -11 -10 -5 0 -7
5 -4 10 3 6 8 10 11 10 2 0 4 -4 4 -10z m522 -163 c-5 -7 -13 -25 -17 -42 -10
-37 -9 -34 -24 -69 -27 -65 -75 -156 -84 -156 -9 0 -4 10 25 53 11 15 16 27
13 27 -4 0 2 15 13 33 11 17 32 70 48 116 16 46 30 76 32 67 2 -9 -1 -22 -6
-29z m-2852 -142 c0 -3 -11 7 -25 23 -14 17 -25 33 -25 37 0 3 11 -7 25 -23
14 -17 25 -33 25 -37z m121 -109 c17 -15 30 -29 28 -31 -6 -5 -139 119 -139
130 0 4 18 -10 39 -32 22 -22 54 -52 72 -67z m2568 -85 c-18 -28 -36 -51 -41
-51 -8 0 23 50 50 78 6 7 12 18 12 24 0 6 3 9 6 5 3 -3 -9 -29 -27 -56z
m-2399 -42 c59 -39 85 -53 93 -51 4 1 7 -2 7 -6 0 -5 24 -21 53 -36 28 -14 63
-36 77 -47 56 -46 -195 103 -292 174 -38 27 -68 51 -68 54 0 2 24 -12 53 -33
28 -21 63 -46 77 -55z m2345 -38 c-3 -6 -11 -11 -17 -11 -6 0 -6 6 2 15 14 17
26 13 15 -4z m-36 -44 c-121 -126 -141 -150 -136 -168 3 -10 1 -19 -4 -19 -5
0 -9 10 -9 23 0 14 29 52 77 104 43 45 79 80 81 78 3 -2 -2 -10 -9 -18z
m-1884 -167 c33 -18 78 -44 100 -56 22 -13 46 -27 54 -30 8 -4 53 -30 100 -59
47 -28 95 -54 105 -58 10 -4 16 -10 13 -14 -4 -3 -46 18 -94 47 -48 29 -108
64 -133 78 -25 13 -61 34 -80 46 -19 11 -55 32 -80 46 -103 56 -150 85 -150
92 0 4 24 -7 53 -26 28 -18 79 -48 112 -66z m1846 -127 c13 -16 12 -17 -3 -4
-10 7 -18 15 -18 17 0 8 8 3 21 -13z m75 -115 c8 -16 13 -32 11 -34 -2 -3 -10
9 -17 26 -7 16 -16 30 -21 30 -5 0 -9 5 -9 11 0 17 19 0 36 -33z m-1498 4 c15
-10 41 -27 57 -38 17 -11 39 -24 49 -27 10 -4 16 -10 13 -14 -4 -3 -24 5 -44
19 -21 14 -55 35 -75 47 -35 21 -46 31 -33 31 3 0 18 -8 33 -18z m1530 -77
c-3 -3 -9 2 -12 12 -6 14 -5 15 5 6 7 -7 10 -15 7 -18z m-1378 -12 c0 -5 10
-13 23 -19 67 -34 88 -47 83 -52 -3 -2 -24 7 -46 22 -22 14 -44 26 -49 26 -5
0 -14 7 -21 15 -9 10 -9 15 -1 15 6 0 11 -3 11 -7z m-1240 -7 c0 -2 -7 -7 -16
-10 -8 -3 -12 -2 -9 4 6 10 25 14 25 6z m2633 -16 c3 -11 1 -18 -4 -14 -5 3
-9 12 -9 20 0 20 7 17 13 -6z m-2689 -15 c-10 -8 -23 -15 -28 -15 -6 0 -1 7
10 15 10 8 23 15 28 15 6 0 1 -7 -10 -15z m2710 -31 c3 -8 2 -12 -4 -9 -6 3
-10 10 -10 16 0 14 7 11 14 -7z m-2770 -2 c3 -5 -1 -9 -9 -9 -8 0 -12 4 -9 9
3 4 7 8 9 8 2 0 6 -4 9 -8z m1536 -33 c3 -3 19 -14 37 -23 17 -9 35 -21 39
-27 4 -7 -13 0 -37 15 -24 15 -56 33 -71 39 -16 6 -28 15 -28 19 0 8 51 -12
60 -23z m1257 -81 c-3 -7 -5 -2 -5 12 0 14 2 19 5 13 2 -7 2 -19 0 -25z
m-1064 -32 c51 -29 108 -63 127 -73 94 -54 118 -69 160 -102 48 -37 109 -101
110 -114 0 -4 -15 9 -32 30 -18 21 -38 41 -45 46 -7 4 -19 14 -27 22 -8 8 -19
15 -25 15 -5 0 -14 6 -18 13 -4 7 -78 53 -163 102 -169 97 -199 115 -186 115
4 0 49 -24 99 -54z m1084 -41 c0 -8 -4 -15 -9 -15 -4 0 -8 7 -8 15 0 8 4 15 8
15 5 0 9 -7 9 -15z m0 -72 c-3 -10 -5 -2 -5 17 0 19 2 27 5 18 2 -10 2 -26 0
-35z m3 -123 c0 -5 -5 -10 -11 -10 -5 0 -7 5 -4 10 3 6 8 10 11 10 2 0 4 -4 4
-10z m-6 -65 c-4 -8 -8 -15 -10 -15 -2 0 -4 7 -4 15 0 8 4 15 10 15 5 0 7 -7
4 -15z m-659 -5 c3 -5 1 -10 -4 -10 -6 0 -11 5 -11 10 0 6 2 10 4 10 3 0 8 -4
11 -10z m638 -65 c-8 -25 -17 -45 -20 -45 -4 0 2 25 18 68 16 42 18 22 2 -23z
m-613 25 c0 -5 -2 -10 -4 -10 -3 0 -8 5 -11 10 -3 6 -1 10 4 10 6 0 11 -4 11
-10z m88 -35 c-3 -3 -9 2 -12 12 -6 14 -5 15 5 6 7 -7 10 -15 7 -18z m-59 -27
c13 -38 0 -26 -17 15 -7 16 -8 26 -3 23 5 -3 14 -20 20 -38z m91 -45 c0 -19
-13 -9 -16 12 -1 8 2 13 7 9 5 -3 9 -12 9 -21z m458 -23 c-11 -28 -22 -49 -24
-47 -5 5 30 97 38 97 4 0 -3 -23 -14 -50z m-454 -96 c-11 -146 -97 -290 -238
-395 -35 -26 -36 -27 -11 -4 124 113 145 138 190 231 36 72 48 124 49 201 1
22 4 39 8 37 3 -2 4 -34 2 -70z m426 26 c0 -5 -4 -10 -10 -10 -5 0 -10 5 -10
10 0 6 5 10 10 10 6 0 10 -4 10 -10z m-1889 -33 c-10 -9 -11 -8 -5 6 3 10 9
15 12 12 3 -3 0 -11 -7 -18z m1869 6 c0 -5 -10 -19 -21 -33 l-21 -25 18 33
c18 32 24 38 24 25z m-40 -67 c0 -2 -8 -10 -17 -17 -16 -13 -17 -12 -4 4 13
16 21 21 21 13z m-1823 -58 c-3 -8 -6 -5 -6 6 -1 11 2 17 5 13 3 -3 4 -12 1
-19z m1769 -12 c-14 -19 -27 -43 -27 -53 -1 -17 -2 -17 -6 0 -4 16 40 87 54
87 3 0 -6 -15 -21 -34z m45 -193 c13 -16 12 -17 -3 -4 -10 7 -18 15 -18 17 0
8 8 3 21 -13z m40 -60 c13 -16 12 -17 -3 -4 -10 7 -18 15 -18 17 0 8 8 3 21
-13z m-681 -40 c0 -5 -13 -17 -28 -27 l-27 -19 24 26 c26 28 31 32 31 20z
m-60 -53 c0 -5 -5 -10 -11 -10 -5 0 -7 5 -4 10 3 6 8 10 11 10 2 0 4 -4 4 -10z
m824 -36 c5 -14 4 -15 -9 -4 -17 14 -19 20 -6 20 5 0 12 -7 15 -16z m57 -91
c13 -16 12 -17 -3 -4 -10 7 -18 15 -18 17 0 8 8 3 21 -13z m-1021 -47 c0 -3
-4 -8 -10 -11 -5 -3 -10 -1 -10 4 0 6 5 11 10 11 6 0 10 -2 10 -4z m-205 -46
c3 -5 1 -10 -4 -10 -6 0 -11 5 -11 10 0 6 2 10 4 10 3 0 8 -4 11 -10z m1299
-16 c3 -8 2 -12 -4 -9 -6 3 -10 10 -10 16 0 14 7 11 14 -7z m481 -74 c3 -5 1
-10 -4 -10 -6 0 -11 5 -11 10 0 6 2 10 4 10 3 0 8 -4 11 -10z m2 -50 c-4 -24
-27 -51 -27 -32 0 7 5 12 10 12 6 0 9 3 9 8 -2 14 1 32 6 32 3 0 3 -9 2 -20z
m-42 -48 c-3 -3 -11 0 -18 7 -9 10 -8 11 6 5 10 -3 15 -9 12 -12z m-5430 -613
c-3 -12 -7 -24 -10 -27 -3 -3 -3 5 -1 19 6 30 5 29 10 29 3 0 3 -10 1 -21z
m2605 -7 c0 -4 -22 -7 -50 -7 -61 0 -66 13 -7 17 44 3 57 1 57 -10z m50 2 c0
-2 -9 -4 -21 -4 -11 0 -18 4 -14 10 5 8 35 3 35 -6z m55 -4 c-32 -7 -48 -3
-41 9 3 4 20 5 38 2 l33 -5 -30 -6z m85 0 c-15 -9 -52 -1 -45 10 2 4 16 5 31
2 16 -3 21 -7 14 -12z m409 10 c13 0 21 -3 18 -6 -3 -4 -93 -6 -199 -6 -228 1
-208 0 -208 10 0 5 151 7 389 2z m255 2 c2 -4 -7 -8 -22 -9 -24 -2 -24 -1 -7
7 11 5 21 9 22 9 1 1 4 -3 7 -7z m130 0 c3 -5 -1 -9 -9 -9 -8 0 -12 4 -9 9 3
4 7 8 9 8 2 0 6 -4 9 -8z m762 -5 c2 -2 -9 -4 -26 -5 -16 0 -32 3 -34 7 -5 7
52 6 60 -2z m-4881 -15 c-3 -3 -11 0 -18 7 -9 10 -8 11 6 5 10 -3 15 -9 12
-12z m1105 14 c0 -2 -7 -7 -16 -10 -8 -3 -12 -2 -9 4 6 10 25 14 25 6z m3057
-2 c-3 -3 -12 -4 -19 -1 -8 3 -5 6 6 6 11 1 17 -2 13 -5z m626 -12 c-10 -10
-20 -17 -22 -16 -6 5 20 34 30 34 5 0 1 -8 -8 -18z m150 11 c-7 -2 -21 -2 -30
0 -10 3 -4 5 12 5 17 0 24 -2 18 -5z m90 0 c-13 -2 -35 -2 -50 0 -16 2 -5 4
22 4 28 0 40 -2 28 -4z m-6246 -25 c-3 -8 -6 -5 -6 6 -1 11 2 17 5 13 3 -3 4
-12 1 -19z m-312 -8 c-3 -5 -12 -10 -18 -10 -7 0 -6 4 3 10 19 12 23 12 15 0z
m-35 -5 c0 -2 -10 -9 -22 -15 -22 -11 -22 -10 -4 4 21 17 26 19 26 11z m2073
-15 c-3 -11 -9 -20 -15 -20 -5 0 -4 9 2 20 6 11 12 20 14 20 2 0 2 -9 -1 -20z
m5157 -15 c0 -5 -5 -3 -10 5 -5 8 -10 20 -10 25 0 6 5 3 10 -5 5 -8 10 -19 10
-25z m965 25 c3 -6 -1 -7 -9 -4 -18 7 -21 14 -7 14 6 0 13 -4 16 -10z m950 0
c3 -5 1 -10 -4 -10 -6 0 -11 5 -11 10 0 6 2 10 4 10 3 0 8 -4 11 -10z m-889
-31 c3 -6 -5 -3 -20 6 -14 10 -26 19 -26 22 0 7 39 -17 46 -28z m-8318 -6 c-9
-10 -23 -38 -31 -63 -9 -25 -16 -37 -17 -27 0 24 40 107 53 107 5 0 3 -8 -5
-17z m426 1 c3 -8 2 -12 -4 -9 -6 3 -10 10 -10 16 0 14 7 11 14 -7z m8842 -15
c16 -33 27 -169 12 -169 -6 0 -10 71 -8 135 0 3 -7 19 -15 35 -9 17 -13 30
-11 30 3 0 13 -14 22 -31z m476 19 c12 -7 30 -22 40 -33 22 -24 51 -75 43 -75
-3 0 -1 -10 5 -22 11 -22 10 -22 -4 -4 -9 11 -16 26 -16 33 0 23 -31 63 -69
89 -37 25 -37 33 1 12z m-5888 -14 c5 -14 4 -15 -9 -4 -17 14 -19 20 -6 20 5
0 12 -7 15 -16z m-2343 -35 c-5 -13 -10 -19 -10 -12 -1 15 10 45 15 40 3 -2 0
-15 -5 -28z m5797 6 c-3 -3 -9 2 -12 12 -6 14 -5 15 5 6 7 -7 10 -15 7 -18z
m-6881 -22 c-3 -10 -5 -4 -5 12 0 17 2 24 5 18 2 -7 2 -21 0 -30z m476 17 c-3
-12 -8 -19 -11 -16 -5 6 5 36 12 36 2 0 2 -9 -1 -20z m1198 -3 c-10 -9 -11 -8
-5 6 3 10 9 15 12 12 3 -3 0 -11 -7 -18z m1769 3 c0 -5 -2 -10 -4 -10 -3 0 -8
5 -11 10 -3 6 -1 10 4 10 6 0 11 -4 11 -10z m2481 -41 c-5 -13 -10 -19 -10
-12 -1 15 10 45 15 40 3 -2 0 -15 -5 -28z m-4258 6 c-3 -9 -8 -14 -10 -11 -3
3 -2 9 2 15 9 16 15 13 8 -4z m1780 -5 c3 -11 2 -22 -2 -24 -4 -3 -8 6 -9 20
-2 29 4 31 11 4z m3457 0 c0 -5 -2 -10 -4 -10 -3 0 -8 5 -11 10 -3 6 -1 10 4
10 6 0 11 -4 11 -10z m-4015 -20 c-3 -5 -12 -10 -18 -10 -7 0 -6 4 3 10 19 12
23 12 15 0z m-2419 -75 c-1 -41 -4 -76 -7 -79 -3 -3 -4 25 -3 62 3 87 3 92 8
92 2 0 3 -34 2 -75z m1174 34 c-5 -19 -17 -44 -25 -54 -15 -18 -15 -18 -2 10
8 17 17 43 21 59 4 15 9 26 11 24 3 -2 0 -20 -5 -39z m2350 21 c6 -11 8 -20 6
-20 -3 0 -10 9 -16 20 -6 11 -8 20 -6 20 3 0 10 -9 16 -20z m2923 -10 c3 -11
2 -18 -3 -15 -4 3 -10 14 -13 25 -3 11 -2 18 3 15 4 -3 10 -14 13 -25z m-1938
11 c3 -5 2 -12 -3 -15 -5 -3 -9 1 -9 9 0 17 3 19 12 6z m926 -14 c-10 -9 -11
-8 -5 6 3 10 9 15 12 12 3 -3 0 -11 -7 -18z m-4821 -1 c0 -3 -4 -8 -10 -11 -5
-3 -10 -1 -10 4 0 6 5 11 10 11 6 0 10 -2 10 -4z m-1076 -21 c3 -8 1 -15 -4
-15 -6 0 -10 7 -10 15 0 8 2 15 4 15 2 0 6 -7 10 -15z m3439 -10 c4 -8 3 -16
-1 -19 -4 -3 -9 4 -9 15 -2 23 3 25 10 4z m-2366 -25 c-2 -23 -10 -17 -12 10
-1 10 2 17 6 14 4 -2 7 -13 6 -24z m5863 -14 c0 -12 -5 -7 -19 24 -11 24 -11
24 3 6 9 -11 16 -24 16 -30z m-6936 15 c3 -5 -2 -15 -12 -22 -15 -12 -16 -12
-5 2 7 9 10 19 6 22 -3 4 -4 7 0 7 3 0 8 -4 11 -9z m8851 -31 c1 -11 -2 -20
-7 -20 -4 0 -8 12 -8 27 0 30 13 24 15 -7z m-4037 -5 c-8 -8 -48 8 -42 16 3 5
14 4 25 -2 12 -6 19 -12 17 -14z m-3743 -4 c3 -5 2 -12 -3 -15 -5 -3 -9 1 -9
9 0 17 3 19 12 6z m2785 5 c0 -2 -8 -10 -17 -17 -16 -13 -17 -12 -4 4 13 16
21 21 21 13z m2007 -18 c-3 -8 -6 -5 -6 6 -1 11 2 17 5 13 3 -3 4 -12 1 -19z
m1092 -23 c0 -5 -4 -3 -9 5 -5 8 -9 22 -9 30 0 16 17 -16 18 -35z m2302 36
c-8 -5 -16 -18 -17 -28 -2 -11 -8 -30 -14 -44 -8 -20 -9 -17 -4 16 7 43 20 65
38 65 6 0 5 -4 -3 -9z m-5824 -23 c-3 -8 -6 -5 -6 6 -1 11 2 17 5 13 3 -3 4
-12 1 -19z m-1847 -18 c-6 -11 -8 -20 -4 -20 3 0 2 -6 -3 -12 -6 -7 -18 -37
-27 -65 -10 -29 -22 -53 -28 -53 -7 0 -7 4 -1 13 6 6 16 30 23 52 7 22 17 46
23 53 5 6 6 12 3 12 -4 0 -2 9 4 20 6 11 13 20 16 20 2 0 0 -9 -6 -20z m7265
-25 c0 -25 -3 -45 -7 -45 -5 0 -8 20 -8 45 0 25 4 45 8 45 4 0 8 -20 7 -45z
m-5028 3 c-3 -7 -5 -2 -5 12 0 14 2 19 5 13 2 -7 2 -19 0 -25z m-3357 12 c0
-5 -2 -10 -4 -10 -3 0 -8 5 -11 10 -3 6 -1 10 4 10 6 0 11 -4 11 -10z m6518
-57 c11 -29 18 -53 16 -53 -6 0 -28 51 -39 90 -12 42 2 18 23 -37z m-3546 22
c3 -13 1 -22 -3 -19 -9 5 -13 44 -5 44 2 0 6 -11 8 -25z m371 -10 c-3 -9 -8
-14 -10 -11 -3 3 -2 9 2 15 9 16 15 13 8 -4z m-3333 -43 c0 -7 -5 -10 -10 -7
-6 4 -8 11 -5 16 4 5 1 9 -5 9 -6 0 -8 5 -4 11 7 13 24 -7 24 -29z m7980 23
c-7 -9 -15 -13 -19 -10 -3 3 1 10 9 15 21 14 24 12 10 -5z m760 11 c0 -2 -7
-7 -16 -10 -8 -3 -12 -2 -9 4 6 10 25 14 25 6z m-4621 -34 c39 1 71 0 71 -4 0
-5 -10 -8 -22 -9 -13 0 -41 -2 -63 -3 -50 -3 -80 7 -89 30 -7 17 -6 17 13 0
16 -14 33 -17 90 -14z m-1162 -4 c-3 -8 -6 -5 -6 6 -1 11 2 17 5 13 3 -3 4
-12 1 -19z m1263 12 c0 -5 -5 -10 -11 -10 -5 0 -7 5 -4 10 3 6 8 10 11 10 2 0
4 -4 4 -10z m1121 -13 c-10 -9 -11 -8 -5 6 3 10 9 15 12 12 3 -3 0 -11 -7 -18z
m3034 3 c-2 -31 -15 -37 -15 -7 0 15 4 27 8 27 5 0 8 -9 7 -20z m-7780 1 c3
-5 2 -12 -3 -15 -5 -3 -9 1 -9 9 0 17 3 19 12 6z m7335 -6 c-7 -8 -17 -15 -23
-15 -6 0 -2 7 9 15 25 19 30 19 14 0z m-40 -19 c0 -2 -7 -7 -16 -10 -8 -3 -12
-2 -9 4 6 10 25 14 25 6z m-7293 -36 c-2 -23 -10 -17 -12 10 -1 10 2 17 6 14
4 -2 7 -13 6 -24z m2368 10 c3 -5 1 -10 -4 -10 -6 0 -11 5 -11 10 0 6 2 10 4
10 3 0 8 -4 11 -10z m3575 -5 c0 -8 -2 -15 -4 -15 -2 0 -6 7 -10 15 -3 8 -1
15 4 15 6 0 10 -7 10 -15z m1836 -10 c0 -14 -4 -25 -8 -25 -4 0 -8 11 -8 25 0
14 4 25 8 25 4 0 8 -11 8 -25z m-7335 -18 c-10 -9 -11 -8 -5 6 3 10 9 15 12
12 3 -3 0 -11 -7 -18z m1921 -12 c3 -14 1 -25 -3 -25 -5 0 -9 11 -9 25 0 14 2
25 4 25 2 0 6 -11 8 -25z m4753 5 c13 -7 26 -19 29 -26 3 -7 -10 -2 -29 10
-26 18 -45 23 -81 21 -26 -2 -42 0 -35 4 18 11 88 6 116 -9z m-1155 -25 c0 -5
-5 -3 -10 5 -5 8 -10 20 -10 25 0 6 5 3 10 -5 5 -8 10 -19 10 -25z m-5960 4
c0 -5 -4 -9 -8 -9 -5 0 -9 7 -9 15 0 8 4 12 9 9 4 -3 8 -9 8 -15z m4703 6 c-3
-9 -8 -14 -10 -11 -3 3 -2 9 2 15 9 16 15 13 8 -4z m3451 -47 c9 -24 17 -50
18 -58 2 -8 8 -19 13 -23 6 -5 4 -7 -4 -5 -8 2 -19 25 -26 51 -7 26 -23 59
-36 74 -23 24 -23 25 -2 14 12 -6 28 -30 37 -53z m-8771 32 c-3 -12 -8 -19
-11 -16 -5 6 5 36 12 36 2 0 2 -9 -1 -20z m8394 5 c0 -8 -4 -15 -9 -15 -4 0
-8 7 -8 15 0 8 4 15 8 15 5 0 9 -7 9 -15z m-5036 -22 c13 -16 12 -17 -3 -4
-17 13 -22 21 -14 21 2 0 10 -8 17 -17z m-2323 -18 c-6 -14 -13 -23 -15 -21
-5 5 15 46 22 46 3 0 -1 -11 -7 -25z m1947 16 c3 -5 2 -12 -3 -15 -5 -3 -9 1
-9 9 0 17 3 19 12 6z m3609 -6 c3 -8 1 -15 -4 -15 -6 0 -10 7 -10 15 0 8 2 15
4 15 2 0 6 -7 10 -15z m-7029 -5 c3 -6 -1 -7 -9 -4 -18 7 -21 14 -7 14 6 0 13
-4 16 -10z m8830 -20 c1 -11 -2 -20 -7 -20 -4 0 -8 12 -8 27 0 30 13 24 15 -7z
m-7775 0 c0 -5 -5 -10 -11 -10 -5 0 -7 5 -4 10 3 6 8 10 11 10 2 0 4 -4 4 -10z
m2755 0 c3 -5 1 -10 -4 -10 -6 0 -11 5 -11 10 0 6 2 10 4 10 3 0 8 -4 11 -10z
m-391 -15 c3 -8 1 -15 -4 -15 -6 0 -10 7 -10 15 0 8 2 15 4 15 2 0 6 -7 10
-15z m3624 -10 c-3 -3 -9 2 -12 12 -6 14 -5 15 5 6 7 -7 10 -15 7 -18z m-6611
-7 c-3 -8 -6 -5 -6 6 -1 11 2 17 5 13 3 -3 4 -12 1 -19z m3392 -33 c0 -5 -4
-3 -9 5 -5 8 -9 22 -9 30 0 16 17 -16 18 -35z m1911 31 c0 -3 -4 -8 -10 -11
-5 -3 -10 -1 -10 4 0 6 5 11 10 11 6 0 10 -2 10 -4z m3095 -41 c0 -25 -3 -45
-7 -45 -5 0 -8 20 -8 45 0 25 4 45 8 45 4 0 8 -20 7 -45z m-5410 26 c3 -5 2
-12 -3 -15 -5 -3 -9 1 -9 9 0 17 3 19 12 6z m3632 -13 c-3 -8 -6 -5 -6 6 -1
11 2 17 5 13 3 -3 4 -12 1 -19z m-5612 -10 c-6 -30 -27 -80 -31 -75 -3 2 3 20
11 40 8 21 13 37 10 37 -4 0 -3 5 0 10 10 17 14 11 10 -12z m5118 10 c-5 -7
-18 -40 -28 -73 -10 -33 -22 -64 -28 -70 -7 -7 -8 -7 -5 0 3 6 13 37 23 70 17
57 31 85 42 85 3 0 1 -6 -4 -12z m-5503 -18 c0 -5 -5 -10 -11 -10 -5 0 -7 5
-4 10 3 6 8 10 11 10 2 0 4 -4 4 -10z m-623 -32 c-3 -7 -5 -2 -5 12 0 14 2 19
5 13 2 -7 2 -19 0 -25z m2986 12 c3 -11 2 -22 -2 -24 -4 -3 -8 6 -9 20 -2 29
4 31 11 4z m3657 -15 c0 -5 -5 -3 -10 5 -5 8 -10 20 -10 25 0 6 5 3 10 -5 5
-8 10 -19 10 -25z m-1378 -7 c-8 -8 -9 -4 -5 13 4 13 8 18 11 10 2 -7 -1 -18
-6 -23z m-709 -2 c4 -10 1 -13 -8 -9 -8 3 -12 9 -9 14 7 12 11 11 17 -5z
m-953 -16 c-6 -11 -13 -20 -16 -20 -2 0 0 9 6 20 6 11 13 20 16 20 2 0 0 -9
-6 -20z m5389 -57 c-21 -45 -53 -93 -75 -113 l-38 -35 41 46 c22 25 44 57 48
70 16 54 45 105 61 109 0 0 -16 -35 -37 -77z m-9975 51 c3 -8 2 -12 -4 -9 -6
3 -10 10 -10 16 0 14 7 11 14 -7z m986 0 c0 -8 -5 -12 -10 -9 -6 4 -8 11 -5
16 9 14 15 11 15 -7z m6654 0 c3 -8 2 -12 -4 -9 -6 3 -10 10 -10 16 0 14 7 11
14 -7z m1741 -4 c-2 -31 -15 -37 -15 -7 0 15 4 27 8 27 5 0 8 -9 7 -20z
m-7775 -10 c0 -5 -5 -10 -11 -10 -5 0 -7 5 -4 10 3 6 8 10 11 10 2 0 4 -4 4
-10z m350 -15 c0 -8 -4 -15 -10 -15 -5 0 -7 7 -4 15 4 8 8 15 10 15 2 0 4 -7
4 -15z m-973 -32 c-3 -10 -5 -4 -5 12 0 17 2 24 5 18 2 -7 2 -21 0 -30z m2980
15 c-3 -8 -6 -5 -6 6 -1 11 2 17 5 13 3 -3 4 -12 1 -19z m-3943 -14 c3 -8 2
-12 -4 -9 -6 3 -10 10 -10 16 0 14 7 11 14 -7z m9360 -36 c-2 -29 -3 -61 -3
-70 -1 -9 -13 -29 -28 -43 -38 -35 -48 -32 -12 4 26 27 29 36 29 95 0 36 4 66
8 66 4 0 7 -24 6 -52z m-8817 20 c-3 -8 -6 -5 -6 6 -1 11 2 17 5 13 3 -3 4
-12 1 -19z m1376 2 c-3 -11 -10 -23 -16 -27 -5 -3 -8 -2 -5 3 3 5 8 17 11 27
9 24 16 22 10 -3z m5112 -27 c-3 -16 -10 -32 -15 -37 -5 -5 -4 7 2 27 13 43
23 50 13 10z m-5445 7 c0 -5 -5 -10 -11 -10 -5 0 -7 5 -4 10 3 6 8 10 11 10 2
0 4 -4 4 -10z m2363 -10 c3 -11 2 -22 -2 -24 -4 -3 -8 6 -9 20 -2 29 4 31 11
4z m-3416 -15 c-7 -13 -14 -20 -15 -14 -2 5 2 16 8 24 18 21 20 18 7 -10z
m1351 -37 c-27 -50 -42 -67 -80 -91 -23 -14 -26 -15 -22 -2 4 8 10 15 15 15
14 0 67 56 84 90 9 17 18 30 21 30 3 0 -5 -19 -18 -42z m2622 28 c0 -3 -4 -8
-10 -11 -5 -3 -10 -1 -10 4 0 6 5 11 10 11 6 0 10 -2 10 -4z m503 -11 c-3 -9
-8 -14 -10 -11 -3 3 -2 9 2 15 9 16 15 13 8 -4z m-3999 -78 l21 -18 -22 11
c-21 10 -54 58 -53 77 1 4 8 -5 17 -22 8 -16 25 -38 37 -48z m596 13 c6 0 10
-6 10 -12 -1 -7 -10 -2 -20 11 -11 13 -20 33 -19 45 1 15 3 12 10 -11 5 -18
14 -33 19 -33z m2337 45 c0 -8 -4 -12 -9 -9 -5 3 -6 10 -3 15 9 13 12 11 12
-6z m1786 -19 c-10 -14 -22 -26 -26 -26 -5 0 2 13 15 29 28 35 37 32 11 -3z
m-5241 -23 c-17 -21 -41 -47 -54 -59 -25 -23 -63 -40 -53 -24 3 6 12 10 19 10
14 0 96 88 96 102 0 4 5 8 11 8 6 0 -3 -17 -19 -37z m4584 -9 c32 -8 221 1
248 12 13 5 17 4 13 -3 -8 -13 -92 -24 -192 -25 -74 -1 -116 15 -130 50 -4 12
0 10 15 -5 11 -13 32 -26 46 -29z m324 42 c0 -2 -11 -11 -25 -20 -14 -9 -25
-13 -25 -8 0 5 10 14 23 20 27 13 27 13 27 8z m-2940 -25 c-11 -21 -30 -37
-30 -25 0 8 30 44 37 44 2 0 -1 -9 -7 -19z m269 -47 c12 -13 -75 28 -88 41 -8
8 8 3 34 -11 27 -13 51 -27 54 -30z m2108 28 c-17 -19 -92 -48 -82 -32 3 5 18
11 34 15 16 3 35 13 42 21 6 8 14 14 17 14 3 0 -2 -8 -11 -18z m-2779 -22 c6
0 12 -4 12 -9 0 -5 -18 -2 -40 6 -22 9 -40 20 -40 24 0 4 12 1 28 -7 15 -7 33
-14 40 -14z m1402 26 c0 -2 -8 -10 -17 -17 -16 -13 -17 -12 -4 4 13 16 21 21
21 13z m2230 -5 c0 -5 -10 -11 -22 -14 -22 -6 -22 -6 -4 8 23 17 26 18 26 6z
m776 -6 c-11 -8 -25 -15 -30 -15 -6 1 0 7 14 15 32 19 40 18 16 0z m-4051 -4
c-12 -10 -65 -24 -65 -16 0 7 40 24 60 24 8 1 10 -2 5 -8z m3500 -11 c3 -6 -1
-7 -9 -4 -18 7 -21 14 -7 14 6 0 13 -4 16 -10z m505 7 c0 -2 -9 -12 -20 -22
-24 -21 -27 -14 -4 9 15 15 24 20 24 13z m-5334 -23 c18 -14 18 -14 -6 -3 -31
14 -36 19 -24 19 6 0 19 -7 30 -16z m618 -13 c-2 -3 -12 3 -22 13 -16 17 -16
18 5 5 12 -7 20 -15 17 -18z m3929 14 c-3 -9 -8 -14 -10 -11 -3 3 -2 9 2 15 9
16 15 13 8 -4z m3503 -13 c-17 -16 -18 -16 -5 5 7 12 15 20 18 17 3 -2 -3 -12
-13 -22z m108 6 c-10 -13 -20 -25 -21 -27 -2 -2 -3 1 -3 7 0 11 27 42 37 42 3
0 -2 -10 -13 -22z m-9209 -11 c-40 -27 -80 -51 -73 -43 13 15 73 55 83 56 5 0
1 -6 -10 -13z m8982 -31 c23 -2 53 2 67 10 14 7 26 9 26 4 0 -13 -52 -27 -93
-24 -38 4 -91 26 -102 44 -3 5 9 1 27 -10 19 -11 53 -21 75 -24z m-1877 30 c0
-2 -9 -6 -20 -9 -11 -3 -18 -1 -14 4 5 9 34 13 34 5z m650 0 c0 -2 -7 -7 -16
-10 -8 -3 -12 -2 -9 4 6 10 25 14 25 6z m535 -6 c13 -6 15 -9 5 -9 -8 0 -22 4
-30 9 -18 12 -2 12 25 0z m351 1 c-6 -9 -46 -22 -46 -15 0 3 10 9 23 14 29 11
29 11 23 1z m-296 -7 c0 -8 -19 -13 -24 -6 -3 5 1 9 9 9 8 0 15 -2 15 -3z m57
0 c-3 -3 -12 -4 -19 -1 -8 3 -5 6 6 6 11 1 17 -2 13 -5z m40 0 c-3 -3 -12 -4
-19 -1 -8 3 -5 6 6 6 11 1 17 -2 13 -5z m57 -3 c3 -4 -6 -6 -19 -3 -14 2 -25
6 -25 8 0 8 39 4 44 -5z m43 3 c-3 -3 -12 -4 -19 -1 -8 3 -5 6 6 6 11 1 17 -2
13 -5z m43 0 c0 -8 -19 -13 -24 -6 -3 5 1 9 9 9 8 0 15 -2 15 -3z m-4390 -584
c0 -5 -12 -10 -27 -9 l-28 1 25 8 c14 4 26 8 28 9 1 1 2 -3 2 -9z m3253 -40
c-3 -11 -9 -20 -15 -20 -5 0 -4 9 2 20 6 11 12 20 14 20 2 0 2 -9 -1 -20z
m1113 -28 c-17 -16 -18 -16 -5 5 7 12 15 20 18 17 3 -2 -3 -12 -13 -22z
m-1121 -11 c3 -5 2 -12 -3 -15 -5 -3 -9 1 -9 9 0 17 3 19 12 6z m-1 -46 c3 -8
1 -15 -4 -15 -6 0 -10 7 -10 15 0 8 2 15 4 15 2 0 6 -7 10 -15z m1076 -9 c0
-2 -8 -10 -17 -17 -16 -13 -17 -12 -4 4 13 16 21 21 21 13z m-1075 -25 c3 -5
2 -12 -3 -15 -5 -3 -9 1 -9 9 0 17 3 19 12 6z m1035 -25 c0 -2 -8 -10 -17 -17
-16 -13 -17 -12 -4 4 13 16 21 21 21 13z m-1035 -26 c-1 -11 -4 -22 -7 -25 -4
-5 -4 34 1 43 4 8 7 -1 6 -18z m-1215 -50 c-6 -11 -12 -20 -14 -20 -2 0 -2 9
1 20 3 11 9 20 15 20 5 0 4 -9 -2 -20z m2200 7 c0 -2 -10 -12 -22 -23 l-23
-19 19 23 c18 21 26 27 26 19z m-989 -59 c2 -20 1 -39 -2 -42 -3 -3 -6 16 -8
41 -3 55 6 56 10 1z m-1248 -13 c-3 -9 -8 -14 -10 -11 -3 3 -2 9 2 15 9 16 15
13 8 -4z m-2120 -9 c64 0 117 -3 117 -7 0 -4 -56 -6 -125 -5 -90 1 -128 6
-137 15 -11 12 -10 13 7 6 11 -4 73 -8 138 -9z m3364 -88 c-3 -8 -6 -5 -6 6
-1 11 2 17 5 13 3 -3 4 -12 1 -19z m-1277 8 c0 -3 -4 -8 -10 -11 -5 -3 -10 -1
-10 4 0 6 5 11 10 11 6 0 10 -2 10 -4z m2120 -10 c0 -2 -8 -10 -17 -17 -16
-13 -17 -12 -4 4 13 16 21 21 21 13z m-838 -76 c2 -22 0 -40 -4 -40 -5 0 -8
18 -8 40 0 22 2 40 4 40 2 0 6 -18 8 -40z m3 -59 c3 -5 2 -12 -3 -15 -5 -3 -9
1 -9 9 0 17 3 19 12 6z m302 -23 c2 -17 0 -19 -7 -8 -5 8 -6 18 -4 22 8 12 10
10 11 -14z m-303 -23 c3 -8 1 -15 -4 -15 -6 0 -10 7 -10 15 0 8 2 15 4 15 2 0
6 -7 10 -15z m325 -55 c0 -10 -3 -8 -9 5 -12 27 -12 43 0 25 5 -8 9 -22 9 -30z
m-324 21 c3 -5 2 -12 -3 -15 -5 -3 -9 1 -9 9 0 17 3 19 12 6z m-2 -51 c3 -11
2 -22 -2 -24 -4 -3 -8 6 -9 20 -2 29 4 31 11 4z m-3373 -10 c100 0 130 -3 146
-16 10 -8 12 -12 4 -7 -8 4 -71 9 -140 10 -158 1 -147 0 -155 21 -5 14 -4 15
6 5 9 -9 52 -13 139 -13z m3708 -31 c-3 -8 -7 -3 -11 10 -4 17 -3 21 5 13 5
-5 8 -16 6 -23z m-341 -41 c-3 -8 -6 -5 -6 6 -1 11 2 17 5 13 3 -3 4 -12 1
-19z"/>
</g>
</svg>
