<?xml version="1.0" encoding="utf-8"?>
<!-- Generator: Adobe Illustrator 19.1.0, SVG Export Plug-In . SVG Version: 6.00 Build 0)  -->
<svg version="1.1" id="Layer_1_xA0_Image_1_" xmlns="http://www.w3.org/2000/svg" xmlns:xlink="http://www.w3.org/1999/xlink"
	 x="0px" y="0px" viewBox="0 0 293 185" style="enable-background:new 0 0 293 185;" xml:space="preserve">
<style type="text/css">
	.st0{fill:#FFFFFF;}
</style>
<g>
	<path class="st0" d="M0,141.6C0,94.4,0,47.2,0,0c97.7,0,195.4,0,293,0c0,61.7,0,123.4,0,185c-97.7,0-195.4,0-293,0
		c0-13.4,0-26.9,0-40.3c0.3,2,0.6,4.1,0.9,6.3c0.7-0.4,1.3-0.6,1.7-1c0.6-0.5,1.1-0.4,1.8,0c2.4,1.3,4.9,1.5,7.4,0.4
		c3.7-1.7,5.3-7.4,3.4-11.4c-1-1.9-2.7-2.9-4.5-3.7c-2.2-1.1-4.5-2.1-6.5-3.4c-1.5-1-1.7-2.7-1.1-4.4c0.5-1.7,1.7-2.6,3.4-2.8
		c2-0.3,3.8,0.3,5,2c0.9,1.3,1.4,2.8,2.2,4.2c0.2,0.3,0.5,0.6,0.8,0.8c0.1-0.3,0.4-0.7,0.4-1c0-1.3-0.1-2.6-0.2-3.8
		c-0.1-1.1-0.4-2.2-0.6-3.5c-0.4,0.2-0.6,0.2-0.7,0.4c-1.2,1.1-2.3,0.7-3.6,0c-2.5-1.4-5.6-0.6-7.5,1.7c-3.2,3.9-2,9.8,2.6,12.1
		c1.8,0.9,3.7,1.5,5.5,2.3c2.7,1.1,4,3.8,3.1,6.3c-0.9,2.6-4.1,4.1-6.8,3.1c-3-1.1-4.7-3.4-5.2-6.5C1.1,141.8,0.8,141.5,0,141.6z
		 M159.7,105.1c-0.5,0.1-0.8,0.1-1.1,0.1c-2.2,0-4.4,0.1-6.6,0c-1.2,0-1.5,0.5-1.5,1.6c0,1.1,0.3,1.6,1.5,1.6c13.7,0,27.4,0,41.2,0
		c1.2,0,1.5-0.5,1.5-1.6c0-1.1-0.3-1.6-1.5-1.6c-3.1,0.1-6.2,0.1-9.2,0c-0.5,0-1.1-0.3-1.3-0.7c-2.2-3.4-4.4-6.9-6.6-10.3
		c-0.6-0.9-1.2-1.8-1.7-2.8c-0.1-0.2,0-0.7,0.2-1c1-1.6,2.3-3.1,3.2-4.7c2.5-4.8,3.1-9.9,1.9-15.1c-1-4.3-2.8-8-6-11.1
		c-1-1-1-1.6,0-2.6c0.5-0.5,1.1-0.9,1.6-1.5c9-10.2,11.2-21.8,6.3-34.5c-4.3-11.2-14.9-20.5-30.8-20.5c-17.3,0-34.6,0-51.8,0
		c-1.1,0-1.6,0.4-1.5,1.5c0.1,1.4,0.2,1.6,1.6,1.6c2.7,0,5.4,0.1,8.2,0.1c0.6,0,0.9,0.1,0.9,0.9c0,4.5,0,8.9,0,13.4
		c0,0.4,0.4,0.8,0.6,1.2c0.4-0.2,0.9-0.4,1.1-0.7c3.3-5.2,7.9-9,13.4-11.6c0.7-0.3,1.4-0.6,2.1-0.9c-1.3,1-2.7,1.8-3.9,2.8
		c-1.2,1-2.4,2.1-3.4,3.4c-4.1,5-3.9,11,0.6,15.6c1.8,1.8,3.9,3.4,6.1,4.7c11.5,6.7,23,13.3,34.6,19.9c3.5,2,6.9,4.1,9.7,7.2
		c6.6,7.4,8.8,15.6,4.8,25c-2.6,6.1-7.4,10.2-13.2,13.2c-0.8,0.4-1.7,0.8-2.5,1.2c0.3-0.5,0.7-0.8,1.1-1.1c1.6-1.4,3.3-2.6,4.7-4.1
		c4.8-5.4,4.5-11.8-0.7-16.8c-1.6-1.6-3.5-2.9-5.5-4.1c-12.1-7-24.3-13.8-36.4-20.8c-4.6-2.6-8.5-6-11.4-10.6
		c-0.2-0.4-0.8-0.6-1.3-0.9c-0.2,0.5-0.5,1-0.5,1.4c0,8.5,0,17,0,25.4c0,0.5,0.3,0.9,0.4,1.4c0.5-0.2,1-0.2,1.4-0.5
		c1.5-1.1,3.1-2,5-2.1c4.4-0.3,8.4,2.6,9.7,7c0.8,2.6,0.3,5.3,0.2,8c-0.2,3.3-0.5,6.6-0.2,9.8c0.4,5.1,3.4,8.5,8.2,10.2
		c1.3,0.5,2.7,0.8,4.1,1.2c-0.4,1.2,0.3,1.5,1.3,1.6c4.2,0.5,8.5,0.5,12.7-0.2c2.3-0.4,4.5-1.1,7-1.7
		C158.2,102.8,158.9,103.9,159.7,105.1z M164.1,128.2c0.1,0,0.2,0,0.2,0c0,0.1,0.1,0.3,0.1,0.4c0.1,5.8,0.2,11.6,0.2,17.4
		c0,1.8-0.7,2.6-2.5,3c-0.3,0.1-0.5,0.4-0.7,0.6c0.3,0.2,0.6,0.5,0.9,0.5c2.8,0,5.5,0,8.3,0c0.3,0,0.6-0.3,0.9-0.5
		c-0.2-0.2-0.4-0.5-0.7-0.6c-1.8-0.5-2.5-1.3-2.5-3.1c-0.1-6.1-0.3-12.2-0.4-18.3c0-1.9,0.6-2.5,2.5-2.8c0.3,0,0.6-0.4,0.9-0.6
		c-0.3-0.2-0.6-0.5-0.9-0.5c-1.8,0-3.6,0-5.4,0c-0.8,0-1,0.3-1.3,1c-1.8,5.4-3.7,10.8-5.5,16.2c-0.3,0.9-0.6,1.7-1.1,2.9
		c-0.3-0.5-0.4-0.8-0.5-1c-2.2-6-4.3-12-6.4-18.1c-0.3-0.7-0.6-1-1.3-1c-1.8,0-3.6,0-5.4,0c-0.3,0-0.6,0.3-1,0.5
		c0.3,0.2,0.6,0.5,1,0.5c2.2,0.2,2.7,0.7,2.6,2.8c-0.1,5.8-0.2,11.7-0.3,17.5c0,2.2-0.7,3.1-2.9,4c-0.2,0.1-0.4,0.4-0.5,0.7
		c0,0.1,0.3,0.4,0.5,0.4c2.6,0,5.2,0,7.8,0c0.1-0.1,0.2-0.2,0.2-0.3c-0.2-0.3-0.4-0.7-0.7-0.8c-2.3-0.6-2.9-1.3-2.9-3.7
		c0-5.4,0-10.8,0.1-16.2c0-0.2,0.1-0.5,0.2-1.1c0.3,0.7,0.5,1.1,0.6,1.5c2.4,6.5,4.8,13.1,7.2,19.6c0.1,0.4,0.5,0.6,0.7,0.9
		c0.3-0.3,0.7-0.6,0.8-1c1.2-3.5,2.4-7.1,3.6-10.7C161.8,135.1,163,131.7,164.1,128.2z M24.4,150.2c1.4,0,2.8,0,4.2,0
		c0.3,0,0.6-0.3,0.9-0.5c-0.3-0.2-0.5-0.5-0.8-0.6c-1.9-0.5-2.5-1.2-2.5-3.2c0-2.2,0-4.4,0-6.6c0-1.7,0.3-2.1,2-2.2
		c1.6-0.1,3.2,0,4.8,0c1.2,0,2.5,0,3.7,0.1c0.9,0.1,1.3,0.5,1.3,1.5c-0.1,2.4,0,4.7,0,7.1c0,2.1-0.7,2.8-2.7,3.3
		c-0.3,0.1-0.5,0.4-0.8,0.6c0.3,0.2,0.6,0.5,0.9,0.5c2.8,0,5.7,0,8.5,0c0.3,0,0.6-0.3,0.9-0.5c-0.3-0.2-0.5-0.5-0.8-0.6
		c-1.8-0.4-2.4-1.1-2.4-2.9c0-6,0-11.9,0-17.9c0-2.1,0.6-2.8,2.6-3.5c0.2-0.1,0.4-0.4,0.6-0.5c-0.2-0.2-0.5-0.5-0.7-0.5
		c-2.9,0-5.8,0-8.8,0c-0.3,0-0.5,0.3-0.8,0.5c0.2,0.2,0.4,0.5,0.7,0.6c2.2,0.6,2.9,1.4,2.9,3.6c0,1.7,0,3.4,0,5.2c0,1.8-0.2,2-2.1,2
		c-2.5,0-5,0-7.4,0c-0.6,0-1.1-0.1-1.6-0.3c-0.3-0.1-0.6-0.5-0.6-0.8c0-2.2-0.1-4.4,0-6.6c0.1-1.8,0.8-2.6,2.6-3.1
		c0.3-0.1,0.5-0.4,0.7-0.6c-0.3-0.2-0.5-0.5-0.8-0.5c-3,0-5.9,0-8.9,0c-0.3,0-0.5,0.3-0.7,0.5c0.2,0.2,0.4,0.5,0.6,0.5
		c2.4,0.6,3,1.4,3,3.9c0,5.7,0,11.4,0,17c0,2.2-0.7,2.9-2.8,3.3c-0.3,0.1-0.6,0.4-0.8,0.6c0.3,0.2,0.7,0.5,1,0.5
		C21.5,150.2,22.9,150.2,24.4,150.2z M221.9,136.6c0.7-0.3,1.3-0.4,1.9-0.6c2.2-0.9,3.8-2.3,4.2-4.8c0.5-3.9-2.4-7.2-6.6-7.3
		c-3.8-0.1-7.7,0-11.5,0c-0.3,0-0.6,0.3-0.9,0.5c0.3,0.2,0.5,0.5,0.8,0.6c1.9,0.4,2.5,1.1,2.5,3c0,6.1,0,12.2,0,18.3
		c0,1.8-0.6,2.5-2.3,2.9c-0.3,0.1-0.6,0.4-0.8,0.6c0.3,0.2,0.6,0.5,1,0.5c2.7,0,5.4,0,8,0c0.3,0,0.7-0.3,1-0.5
		c-0.3-0.2-0.6-0.6-0.9-0.6c-1.6-0.4-2.3-1-2.3-2.4c-0.1-2.8-0.1-5.7,0-8.5c0-0.3,0.5-0.9,0.9-0.9c2.1-0.3,3.3,0.3,4.3,2.2
		c0.6,1.2,1,2.4,1.4,3.7c0.6,1.8,0.9,3.6,1.6,5.4c0.6,1.6,2.4,2.4,4.4,2.1c1.1-0.1,2.4-1.4,2.7-2.8c0.1-0.3-0.1-0.7-0.2-1.1
		c-0.7,0.6-1.4,1.6-1.8,1.5c-0.7-0.2-1.3-0.9-1.7-1.6c-0.5-1.1-0.9-2.2-1.1-3.4c-0.5-2.6-1.9-4.6-4.1-6.1
		C222.2,137,222.1,136.8,221.9,136.6z M78.3,137.5c0-0.7-0.1-1.1-0.1-1.5c0-2.4,0-4.9,0-7.3c0-2.9,0.3-3.3,3.1-4.1
		c0.3-0.8-0.2-0.9-0.9-0.9c-2.7,0-5.4,0-8.2,0c-0.3,0-0.7,0.3-1,0.5c0.3,0.2,0.5,0.5,0.8,0.6c1.9,0.4,2.6,1.2,2.7,3.2
		c0,6,0,11.9,0,17.9c0,1.9-0.6,2.7-2.5,3.1c-0.3,0.1-0.6,0.4-0.8,0.6c0.3,0.2,0.6,0.5,1,0.5c2.8,0,5.5,0,8.3,0
		c0.4,0,0.7-0.3,1.1-0.5c-0.3-0.2-0.6-0.5-1-0.6c-1.9-0.4-2.6-1.2-2.6-3.1c0-1.2,0.1-2.3,0-3.5c-0.3-2.3,1-3.8,2.7-5.1
		c0.1,0.1,0.3,0.2,0.4,0.3c2.2,3.2,4.5,6.4,6.6,9.7c0.7,1.1,0.5,1.5-0.8,1.8c-0.3,0.1-0.5,0.3-0.7,0.5c0.2,0.2,0.5,0.6,0.7,0.6
		c3,0,5.9,0,9.2,0c-0.3-0.5-0.5-1.1-0.7-1.1c-1.7-0.2-2.7-1.2-3.6-2.5c-2.7-3.9-5.3-7.8-8-11.6c-0.4-0.6-0.2-0.9,0.2-1.3
		c2-2.2,4.1-4.4,6.1-6.6c1-1,2.1-1.8,3.5-2.1c0.3-0.1,0.6-0.5,0.9-0.8c-0.4-0.2-0.7-0.4-1.1-0.5c-2.4,0-4.7,0-7.1,0
		c-0.3,0-0.7,0.3-1,0.5c0.3,0.2,0.6,0.5,0.9,0.6c1.6,0.3,2,1.2,1.1,2.6c-0.2,0.4-0.6,0.8-0.9,1.1c-1.1,1.2-2.1,2.3-3.2,3.4
		C81.9,133.8,80.2,135.5,78.3,137.5z M275.8,123.6C275.8,123.7,275.8,123.7,275.8,123.6c-1.8,0.1-3.6,0.1-5.4,0.1
		c-0.4,0-0.8,0.3-1.2,0.5c0.4,0.3,0.7,0.9,1.1,0.9c1.8,0.1,2.4,1.1,2.4,2.8c0,6,0,12.1,0,18.1c0,2.2-0.5,2.6-2.6,3
		c-0.3,0.1-0.5,0.4-0.8,0.6c0.3,0.2,0.6,0.5,0.9,0.5c2.1,0,4.2,0.1,6.2,0c2.6-0.1,5.2-0.2,7.7-0.8c4.1-0.9,6.9-3.5,8-7.7
		c0.8-3,0.9-6.1,0.1-9.1c-1.2-5-4.6-8-9.7-8.6C280.4,123.7,278.1,123.7,275.8,123.6z M138.8,123.9c-0.3-0.1-0.3-0.2-0.4-0.2
		c-5.8,0-11.7,0-17.5,0c-0.2,0-0.5,0.3-0.7,0.5c0.2,0.2,0.5,0.5,0.7,0.6c2,0.5,2.8,1.4,2.8,3.3c0,6,0,12.1,0,18.1
		c0,1.6-0.7,2.4-2.3,2.8c-0.4,0.1-0.7,0.4-1,0.6c0.4,0.2,0.8,0.5,1.1,0.5c5,0,10.1,0,15.1,0c2.7,0,2.7,0,3.1-2.7
		c0.2-1.5,0.4-2.9,0.5-4.4c0-0.3-0.3-0.6-0.4-0.8c-0.2,0.2-0.5,0.4-0.6,0.6c-0.3,0.5-0.4,1.1-0.6,1.7c-0.7,2-2,3.5-4.2,3.8
		c-1.7,0.2-3.4,0.3-5.1,0.2c-1.2,0-2-0.8-2-2c-0.1-2.7,0-5.4,0-8.2c0-0.8,0.4-1.3,1.2-1.4c3.2-0.1,4.7,0.1,5.3,3.5
		c0.1,0.3,0.5,0.6,0.7,0.9c0.2-0.4,0.6-0.7,0.6-1.1c0.1-2,0-3.9,0-5.9c0-1,0-2,0-3c-1-0.4-1.3,0-1.4,0.8c-0.6,2.6-1.5,3.2-4.1,3.2
		c-0.3,0-0.6,0-0.8,0c-1.2,0.1-1.6-0.5-1.6-1.5c0-2.2,0-4.4,0-6.6c0-1.5,0.6-2.2,2.2-2.3c1.2-0.1,2.4-0.1,3.6,0
		c2.4,0.1,3.9,1.4,4.7,3.8c0.2,0.7,0.4,1.4,0.5,2c0.1,0,0.2,0.1,0.3,0.1c0.2-0.3,0.6-0.6,0.6-0.9C139,128.2,138.9,126,138.8,123.9z
		 M250.3,130.9c0.1,0.1,0.3,0.2,0.4,0.2c0.2-0.3,0.6-0.7,0.5-1c0-1.8-0.2-3.7-0.2-5.5c0-0.8-0.4-0.9-1-0.9c-1.7,0-3.4,0-5,0
		c-3.9,0-7.8,0-11.6,0c-0.3,0-0.7,0.3-1,0.5c0.3,0.2,0.5,0.5,0.8,0.6c1.9,0.5,2.6,1.4,2.6,3.6c0,5.8,0,11.7,0,17.5
		c0,2.1-0.6,2.7-2.5,3.2c-0.3,0.1-0.6,0.4-0.9,0.7c0.1,0.1,0.2,0.3,0.2,0.4c0.4,0,0.9,0,1.3,0c5.4,0,10.8,0,16.2,0
		c1.2,0,1.7-0.3,1.6-1.5c0-0.4,0.1-0.7,0.1-1.1c0.2-1.4,0.4-2.9,0.5-4.3c0-0.3-0.2-0.7-0.3-1c-0.3,0.3-0.6,0.5-0.8,0.8
		c-0.3,0.6-0.5,1.2-0.7,1.8c-0.7,1.9-2.1,3.2-4.1,3.5c-1.7,0.2-3.4,0.3-5.1,0.2c-1.2,0-2-0.9-2-2.1c-0.1-2.7,0-5.4,0-8
		c0-0.8,0.5-1.4,1.3-1.4c3-0.1,4.7,0,5.2,3.6c0,0.1,0,0.2,0,0.2c0.2,0.2,0.5,0.5,0.6,0.5c0.3-0.1,0.6-0.4,0.6-0.6c0-2.9,0-5.8,0-8.8
		c0-0.2-0.3-0.6-0.5-0.6c-0.3,0-0.6,0.2-0.8,0.5c-0.2,0.3-0.2,0.8-0.3,1.2c-0.4,1.7-1.4,2.5-3.2,2.5c-0.5,0-1,0-1.6,0
		c-1.2,0.1-1.6-0.4-1.6-1.5c0-2.2,0-4.4,0-6.6c0-1.5,0.6-2.2,2.2-2.3c1.2-0.1,2.5-0.1,3.7,0c2.4,0.2,3.9,1.4,4.6,3.7
		C249.9,129.6,250.1,130.3,250.3,130.9z M115,131c0.8,0.1,1-0.3,1-1c-0.1-1.8-0.2-3.6-0.2-5.4c0-0.6-0.2-0.9-0.9-0.9
		c-5.6,0-11.3,0-16.9,0c-0.3,0-0.6,0.3-0.9,0.5c0.3,0.2,0.5,0.5,0.8,0.6c1.8,0.5,2.7,1.4,2.7,3.3c0,6,0,12.1,0,18.1
		c0,1.6-0.7,2.4-2.3,2.8c-0.4,0.1-0.7,0.4-1,0.6c0.4,0.2,0.8,0.5,1.2,0.5c5.1,0,10.2,0,15.2,0c2.5,0,2.5,0,2.8-2.4
		c0.2-1.5,0.4-3.1,0.6-4.6c0-0.3-0.3-0.6-0.4-0.8c-0.2,0.2-0.5,0.4-0.6,0.6c-0.3,0.7-0.5,1.3-0.8,2c-0.7,1.9-2.1,3.2-4.2,3.5
		c-1.7,0.2-3.3,0.3-5,0.2c-1.2,0-2-0.9-2-2.1c-0.1-2.7,0-5.4,0-8c0-0.8,0.4-1.3,1.2-1.4c3.2-0.2,4.8,0.1,5.3,3.5
		c0,0.1,0,0.3,0.1,0.3c0.2,0.2,0.5,0.5,0.6,0.5c0.3-0.1,0.6-0.4,0.6-0.6c0-2.9,0-5.8,0-8.8c0-0.2-0.3-0.6-0.5-0.6
		c-0.3,0-0.6,0.2-0.8,0.5c-0.2,0.3-0.2,0.8-0.3,1.2c-0.4,1.6-1.4,2.4-3.1,2.5c-0.5,0-1,0-1.6,0c-1.5,0-1.6-0.2-1.7-1.7
		c0-2.2,0-4.3,0-6.5c0-1.5,0.7-2.2,2.2-2.2c1.2,0,2.4-0.1,3.6,0c2.4,0.1,3.9,1.3,4.6,3.7C114.7,129.6,114.8,130.3,115,131z
		 M130.7,105.3c0-0.6,0-1,0-1.5c0.2-3,0.1-2.4-2.3-3.1c-0.1,0-0.2,0-0.2-0.1c-7.8-2.4-14.2-6.6-18.5-13.8c-0.2-0.4-0.8-0.6-1.1-0.8
		c-0.2,0.5-0.6,0.9-0.6,1.4c-0.1,5.5-0.1,11,0,16.6c0,1-0.3,1.3-1.3,1.3c-2.6,0-5.2,0-7.8,0c-1.1,0-1.6,0.3-1.6,1.5
		c0.1,1.5,0.2,1.6,1.5,1.6c13.7,0,27.4,0,41,0c1.4,0,1.6-0.1,1.6-1.6c0-1.4-0.1-1.5-1.6-1.5C136.8,105.3,133.9,105.3,130.7,105.3z
		 M184.5,122.7c-0.3,0.6-0.4,0.8-0.5,1c-2.8,7.5-5.5,14.9-8.3,22.4c-0.5,1.3-1.1,2.5-2.5,3c-0.2,0.1-0.3,0.5-0.5,0.7
		c0.3,0.2,0.6,0.4,0.8,0.4c2,0,4,0,6,0c0.4,0,0.7-0.3,1.1-0.4c-0.3-0.2-0.6-0.6-1-0.7c-1.8-0.4-2.4-1.2-1.9-3
		c0.4-1.4,0.8-2.9,1.2-4.3c0.2-0.8,0.7-1.2,1.6-1.2c2,0,3.9,0,5.9,0c0.9,0,1.6,0.4,1.9,1.3c0.6,1.7,1.1,3.4,1.7,5.1
		c0.3,1-0.1,1.4-1,1.7c-0.3,0.1-0.7,0.1-1,0.3c-0.3,0.2-0.6,0.5-0.9,0.8c0.3,0.2,0.7,0.5,1,0.5c2.5,0,5,0,7.6,0
		c0.4,0,0.8-0.3,1.2-0.5c-0.3-0.3-0.6-0.9-1-0.9c-1.2-0.2-1.7-1-2.1-2.1c-2.6-7.5-5.3-15-8-22.4C185.5,123.8,185,123.4,184.5,122.7z
		 M58.3,123c-0.1,0.1-0.3,0.1-0.4,0.2c-0.1,0.2-0.2,0.4-0.3,0.6c-2.7,7.4-5.5,14.8-8.2,22.3c-0.5,1.3-1.1,2.4-2.4,2.9
		c-0.3,0.1-0.4,0.5-0.6,0.7c0.3,0.1,0.6,0.4,0.8,0.4c2,0,4.1,0,6.1,0c0.3,0,0.6-0.3,1-0.5c-0.3-0.2-0.6-0.5-0.9-0.6
		c-1.9-0.4-2.4-1.2-2-3.1c0.3-1.4,0.8-2.8,1.1-4.2c0.2-0.8,0.8-1.3,1.7-1.3c1.9,0,3.8,0,5.8,0c1,0,1.7,0.5,2,1.6
		c0.3,1.2,0.7,2.3,1.1,3.4c0.8,2.6,0.8,2.6-1.9,3.4c-0.2,0.1-0.5,0.4-0.6,0.7c0,0.1,0.4,0.5,0.6,0.5c3,0,6,0,8.9,0
		c0.4-0.9,0-1.3-0.7-1.4c-1.3-0.2-1.9-1-2.3-2.2c-2.6-7.5-5.3-14.9-8-22.4C59.1,123.8,58.6,123.4,58.3,123z M114.3,165
		c0,0.1,0,0.2,0,0.2c1.4,6.1,2.7,12.2,4.1,18.4c0.2,0.9,0.8,0.7,1.4,0.8c0.6,0,1.1,0,1.3-0.9c0.7-3.2,1.5-6.4,2.3-9.7
		c0.4-1.8,0.8-3.7,1.2-5.5c0.3,0.2,0.3,0.4,0.4,0.6c1,4.8,2,9.6,2.9,14.4c0.2,0.8,0.5,1.1,1.3,1.1c0.9,0,1.3-0.3,1.5-1.2
		c0.7-3,1.5-6,2.2-9c0.8-3.1,1.5-6.2,2.3-9.3c-2-0.3-2.1-0.3-2.5,1.5c-0.8,3.7-1.7,7.4-2.5,11.1c-0.3,1.1-0.5,2.2-0.7,3.4
		c-0.4-0.6-0.5-1.1-0.6-1.7c-0.9-4.5-1.9-9.1-2.8-13.6c-0.2-0.9-0.6-0.9-1.3-0.9c-0.7,0-1.2,0-1.4,0.9c-1,4.8-2.1,9.5-3.2,14.3
		c-0.1,0.3-0.2,0.6-0.5,1.1c-1-5-2-9.7-2.9-14.4C116.4,164.7,116.3,164.6,114.3,165z M79.6,168.2c0.2,0.1,0.3,0.1,0.3,0.2
		c2.6,4.9,5.2,9.8,7.8,14.7c0.8,1.5,1.1,1.6,2.8,1.1c0-6.4,0-12.8,0-19.2c-0.6,0-1.2,0-1.9,0c0,5.2,0,10.4,0,15.6
		c-2.6-4.8-5.3-9.5-7.9-14.3c-0.9-1.6-1.2-1.7-3-1.2c0,6.4,0,12.8,0,19.2c0.7,0,1.2,0,1.8,0C79.6,178.9,79.6,173.5,79.6,168.2z
		 M260.5,123.7c-1.5,0-3,0-4.4,0c-0.2,0-0.5,0.3-0.7,0.5c0.2,0.2,0.3,0.5,0.5,0.6c2.4,0.8,2.9,1.4,2.9,3.9c0,5.8,0,11.5,0,17.3
		c0,1.9-0.7,2.7-2.5,3.1c-0.3,0.1-0.6,0.4-0.8,0.6c0.3,0.2,0.6,0.5,1,0.5c2.7,0,5.4,0,8.1,0c0.4,0,0.8-0.3,1.2-0.5
		c-0.3-0.2-0.6-0.6-1-0.6c-1.6-0.3-2.4-1.2-2.4-2.8c0-6,0-12.1,0-18.1c0-2,0.7-2.8,2.6-3.4c0.3-0.1,0.4-0.4,0.7-0.6
		c-0.3-0.2-0.5-0.5-0.8-0.5C263.4,123.7,262,123.7,260.5,123.7z M181.6,174.6c-0.4-1.7-0.6-3.5-1.1-5.1c-1-2.8-3-4.6-6.1-4.9
		c-2.7-0.2-4.8,0.9-6.4,3c-2.7,3.6-2.8,10.2-0.2,14c3.1,4.5,9.4,4.2,12.1-0.6C180.9,179,181.3,176.8,181.6,174.6z M196.1,175
		c0.4-0.2,0.6-0.3,0.8-0.5c1.8-1.1,2.7-3.2,2.3-5.5c-0.4-2.2-1.6-3.6-4-3.9c-1.8-0.2-3.6,0-5.4,0c-0.9,0-1.2,0.4-1.2,1.3
		c0,5.6,0,11.1,0,16.7c0,0.4,0,0.8,0,1.1c0.8,0,1.4,0,2.1,0c0-0.5,0-1,0-1.4c0-2,0-3.9,0-5.9c0-0.4,0.2-0.9,0.5-1
		c2.3-0.7,4.4,0.5,5,2.9c0.3,1.3,0.5,2.6,0.8,3.9c0.4,1.7,0.6,1.8,2.6,1.4C198.4,181.2,199.3,177.4,196.1,175z M206.5,164.9
		c0,6.5,0,12.9,0,19.3c0.7,0,1.3,0,2,0c0-2,0.1-4,0-5.9c-0.1-1.5,0.7-2.4,1.7-3.5c0.3,0.4,0.5,0.6,0.7,0.9c1.4,2.4,2.8,4.8,4.3,7.2
		c0.9,1.5,1.2,1.7,3.2,1.2c-0.2-0.3-0.3-0.6-0.5-0.8c-1.7-2.8-3.4-5.6-5-8.4c-1.1-1.8-1.1-1.8,0.2-3.4c1.6-2.1,3.2-4.2,4.9-6.5
		c-1.5-0.2-2.7-0.3-3.5,1.2c-1.1,1.8-2.4,3.5-3.7,5.2c-0.6,0.9-1.2,1.7-1.8,2.6c-0.1,0-0.2,0-0.3-0.1c0-3,0-5.9,0-8.9
		C207.8,164.9,207.2,164.9,206.5,164.9z M98.9,164.9c0,6.5,0,12.9,0,19.3c3.2,0,6.3,0,9.4,0c0.2-1.9,0.2-1.9-1.5-1.9
		c-1.6,0-3.2,0-4.8,0c-0.7,0-1.1-0.2-1.1-1c0-1.7,0-3.4,0-5.2c0-0.7,0.3-1,1-1c1.4,0,2.8,0,4.2,0c1.6,0,1.8-0.3,1.3-2
		c-0.9,0-1.8,0-2.7,0c-0.9,0-1.8,0-2.8,0c-0.7,0-1-0.2-1-1c0-1.5,0-3,0-4.6c0-0.7,0.3-1,1-1c1.5,0,3,0,4.6,0c1.6,0,1.7-0.1,1.4-1.9
		C104.9,164.9,102,164.9,98.9,164.9z M156,184.3c0-2.4,0-4.8,0-7.1c0-0.8,0.2-1.7,0.6-2.4c1.5-3,3-5.9,4.5-8.8
		c0.2-0.3,0.3-0.7,0.5-1.1c-2.2-0.2-2.2-0.2-3,1.5c-0.9,2-1.9,4.1-2.8,6.1c-0.2,0.5-0.5,1-0.8,1.8c-1.3-2.8-2.4-5.4-3.5-7.9
		c-0.8-1.8-0.9-1.8-2.9-1.3c0.1,0.2,0.2,0.4,0.3,0.7c1.1,2.4,2.2,4.8,3.5,7.1c1.2,2.1,1.8,4.3,1.6,6.7c-0.1,1.6,0,3.2,0,4.8
		C154.6,184.3,155.2,184.3,156,184.3z M157.1,114.1c0-0.1,0-0.3,0-0.4c-7.4,0-14.7,0-22.1,0c0,0.1,0,0.3,0,0.4
		C142.3,114.1,149.7,114.1,157.1,114.1z"/>
	<path d="M0,141.6c0.8-0.1,1.1,0.2,1.3,1.1c0.5,3.1,2.2,5.4,5.2,6.5c2.7,1,5.8-0.5,6.8-3.1c0.9-2.5-0.4-5.2-3.1-6.3
		c-1.8-0.8-3.7-1.4-5.5-2.3c-4.6-2.3-5.8-8.2-2.6-12.1c1.9-2.3,5-3.1,7.5-1.7c1.3,0.7,2.4,1.1,3.6,0c0.1-0.1,0.3-0.2,0.7-0.4
		c0.2,1.2,0.5,2.3,0.6,3.5c0.2,1.3,0.2,2.5,0.2,3.8c0,0.3-0.3,0.6-0.4,1c-0.3-0.3-0.6-0.5-0.8-0.8c-0.7-1.4-1.3-2.9-2.2-4.2
		c-1.2-1.7-3-2.2-5-2c-1.7,0.2-2.9,1.1-3.4,2.8c-0.5,1.7-0.4,3.4,1.1,4.4c2,1.3,4.3,2.4,6.5,3.4c1.8,0.9,3.5,1.8,4.5,3.7
		c2,4,0.3,9.7-3.4,11.4c-2.5,1.1-5,0.9-7.4-0.4c-0.7-0.4-1.1-0.5-1.8,0c-0.5,0.4-1.1,0.6-1.7,1c-0.3-2.2-0.6-4.2-0.9-6.3
		C0,143.7,0,142.6,0,141.6z"/>
	<path d="M159.7,105.1c-0.8-1.3-1.4-2.4-1.9-3.2c-2.5,0.6-4.7,1.3-7,1.7c-4.2,0.7-8.4,0.6-12.7,0.2c-1.1-0.1-1.7-0.4-1.3-1.6
		c-1.4-0.4-2.8-0.7-4.1-1.2c-4.8-1.7-7.8-5.1-8.2-10.2c-0.3-3.2,0.1-6.5,0.2-9.8c0.1-2.7,0.6-5.3-0.2-8c-1.3-4.4-5.3-7.3-9.7-7
		c-1.9,0.1-3.5,1-5,2.1c-0.4,0.3-0.9,0.3-1.4,0.5c-0.1-0.5-0.4-0.9-0.4-1.4c0-8.5,0-17,0-25.4c0-0.5,0.3-1,0.5-1.4
		c0.4,0.3,1,0.5,1.3,0.9c2.9,4.6,6.8,8,11.4,10.6c12.1,7,24.3,13.8,36.4,20.8c2,1.1,3.8,2.5,5.5,4.1c5.2,5,5.4,11.4,0.7,16.8
		c-1.4,1.5-3.1,2.8-4.7,4.1c-0.4,0.3-0.8,0.6-1.1,1.1c0.8-0.4,1.7-0.7,2.5-1.2c5.8-3,10.6-7.1,13.2-13.2c4-9.4,1.8-17.6-4.8-25
		c-2.7-3-6.1-5.2-9.7-7.2c-11.6-6.6-23.1-13.2-34.6-19.9c-2.2-1.3-4.3-2.9-6.1-4.7c-4.5-4.6-4.7-10.6-0.6-15.6
		c1-1.2,2.2-2.4,3.4-3.4c1.2-1,2.6-1.8,3.9-2.8c-0.7,0.3-1.4,0.6-2.1,0.9c-5.5,2.7-10.1,6.4-13.4,11.6c-0.2,0.3-0.7,0.5-1.1,0.7
		c-0.2-0.4-0.6-0.8-0.6-1.2c0-4.5-0.1-8.9,0-13.4c0-0.8-0.4-0.8-0.9-0.9c-2.7,0-5.4-0.1-8.2-0.1c-1.4,0-1.5-0.2-1.6-1.6
		c-0.1-1.2,0.4-1.5,1.5-1.5c17.3,0,34.6,0.1,51.8,0c15.9,0,26.5,9.4,30.8,20.5c4.9,12.7,2.7,24.2-6.3,34.5c-0.5,0.5-1.1,1-1.6,1.5
		c-1.1,1-1.1,1.6,0,2.6c3.1,3.1,5,6.9,6,11.1c1.2,5.3,0.6,10.3-1.9,15.1c-0.9,1.7-2.1,3.2-3.2,4.7c-0.2,0.3-0.3,0.8-0.2,1
		c0.5,1,1.1,1.9,1.7,2.8c2.2,3.4,4.3,6.9,6.6,10.3c0.2,0.4,0.9,0.7,1.3,0.7c3.1,0,6.2,0.1,9.2,0c1.2,0,1.5,0.5,1.5,1.6
		c0,1.1-0.3,1.6-1.5,1.6c-13.7,0-27.4,0-41.2,0c-1.2,0-1.5-0.4-1.5-1.6c0-1.1,0.2-1.6,1.5-1.6c2.2,0.1,4.4,0,6.6,0
		C158.8,105.3,159.1,105.2,159.7,105.1z M161.9,106.7c6.6,0,13.2,0,19.8,0c-0.9-1.3-1.7-2.5-2.5-3.8c-2-3.5-4-7.1-6.1-10.6
		c-0.6-1-0.6-1.6,0.1-2.5c7.4-9.5,6.5-22-2-30.5c-1-1.1-1-1.4,0.1-2.4c8.6-7.9,12.3-17.7,10.4-29.3c-2.1-12.8-12.2-23.2-26.9-25.2
		c-0.3,0-0.7,0-1,0c0.5,0.4,0.9,0.6,1.4,0.7c0.5,0.2,1,0.3,1.5,0.5c10,3.8,17.1,10.3,19.8,20.9c1,3.9,0.8,7.8-1.4,11.3
		c-2.2,3.6-6.2,5.4-10.2,4.8c-4.6-0.7-7.7-3.1-8.8-7.8c-0.7-3.1-0.5-6.2-0.3-9.3c0.2-3,0.4-6,0.2-9c-0.4-5.1-3.3-8.4-8.3-9.5
		c-5.7-1.4-11.4-1-16.9,0.6C126.1,6.9,122,9.1,119,13c-3.3,4.2-3.3,8.9,0.1,13c1.1,1.3,2.4,2.6,3.9,3.5c4.8,2.9,9.7,5.6,14.6,8.5
		c8.9,5.2,17.7,10.3,26.5,15.5c2.3,1.4,4.4,3.1,6.2,5.1c6.9,7.6,8.9,16.4,4.8,26.1c-2.9,6.9-8.2,11.6-14.9,14.8
		c-0.5,0.3-1,0.5-1.5,0.8C159.6,102.6,161.5,104.2,161.9,106.7z M109.6,44c0,7.5,0,14.8,0,22.2c0.6-0.3,1.1-0.5,1.5-0.8
		c5.9-2.8,12.7-0.1,14.7,6c0.6,1.8,0.7,3.8,0.7,5.7c-0.1,3.6-0.6,7.3-0.7,10.9c-0.1,3,0.5,5.9,2.5,8.3c0.3,0.3,0.6,0.6,0.9,0.9
		c-0.1-1.5-0.2-2.9-0.2-4.3c0-2.3,0.2-4.6,0.2-6.8c0-5.4,0-10.8,0-16.2c0-1.3,0.3-1.6,1.6-1.5c6.3,0.5,11.1,3.1,14.3,8.9
		c3.4,6.5,7.5,12.7,11.2,19c0.3,0.5,0.6,0.8,1.2,0.4c2.5-1.6,4.8-3.3,6.4-5.9c2.3-3.6,2.3-7.3-0.1-10.9c-1.6-2.4-3.8-4.1-6.3-5.5
		c-12.3-7.1-24.6-14.1-36.9-21.2c-3.9-2.2-7.4-5-10.2-8.6C110.1,44.6,109.9,44.4,109.6,44z M156.4,99.4c-0.4-0.5-0.7-0.9-1-1.3
		c-3.1-5.2-6.2-10.4-9.4-15.6c-1.4-2.4-2.8-4.8-4.4-7c-2.6-3.6-6.4-5.1-10.9-5.5c0,1,0,1.9,0,2.8c0,7.3,0.1,14.5,0,21.8
		c-0.1,2.4,0.9,3.7,2.9,4.5c1.6,0.6,3.2,1.1,4.9,1.5c0.9,0.2,1.6,0.4,1.4,1.6C145.6,102.2,151,101.3,156.4,99.4z M148.1,3
		c0.1,0.3,0.1,0.4,0.1,0.4c0.2,0.1,0.4,0.2,0.7,0.2c4.5,1.4,7.6,4.2,8.5,9c0.4,2.2,0.4,4.5,0.4,6.7c-0.1,3.8-0.5,7.7-0.5,11.5
		c0,2.5,1.1,4.6,3.1,6.1c3,2.4,6.4,2.9,9.9,1.4c3.6-1.5,5.3-4.5,5.4-8.2c0.2-4.6-1.3-8.8-3.7-12.6c-4.8-7.9-12.2-12-20.9-13.9
		C150,3.2,149.1,3.1,148.1,3z M109.5,2c0,4.5,0,8.9,0,13.7c5.5-7.2,12.8-11.2,21-13.7C123.5,2,116.5,2,109.5,2z"/>
	<path d="M164.1,128.2c-1.2,3.4-2.3,6.9-3.5,10.3c-1.2,3.6-2.4,7.1-3.6,10.7c-0.1,0.4-0.6,0.7-0.8,1c-0.3-0.3-0.6-0.6-0.7-0.9
		c-2.4-6.5-4.8-13.1-7.2-19.6c-0.1-0.4-0.3-0.8-0.6-1.5c-0.1,0.6-0.2,0.8-0.2,1.1c0,5.4,0,10.8-0.1,16.2c0,2.4,0.6,3.1,2.9,3.7
		c0.3,0.1,0.5,0.5,0.7,0.8c-0.1,0.1-0.2,0.2-0.2,0.3c-2.6,0-5.2,0-7.8,0c-0.2,0-0.6-0.3-0.5-0.4c0-0.2,0.2-0.6,0.5-0.7
		c2.2-0.9,2.8-1.7,2.9-4c0.1-5.8,0.2-11.7,0.3-17.5c0-2.1-0.4-2.6-2.6-2.8c-0.3,0-0.6-0.4-1-0.5c0.3-0.2,0.6-0.5,1-0.5
		c1.8-0.1,3.6,0,5.4,0c0.8,0,1.1,0.3,1.3,1c2.1,6,4.3,12,6.4,18.1c0.1,0.2,0.2,0.5,0.5,1c0.4-1.2,0.8-2,1.1-2.9
		c1.8-5.4,3.7-10.8,5.5-16.2c0.2-0.6,0.5-1,1.3-1c1.8,0.1,3.6,0,5.4,0c0.3,0,0.6,0.3,0.9,0.5c-0.3,0.2-0.6,0.6-0.9,0.6
		c-1.9,0.2-2.5,0.9-2.5,2.8c0.1,6.1,0.2,12.2,0.4,18.3c0,1.8,0.7,2.6,2.5,3.1c0.3,0.1,0.5,0.4,0.7,0.6c-0.3,0.2-0.6,0.5-0.9,0.5
		c-2.8,0-5.5,0-8.3,0c-0.3,0-0.6-0.3-0.9-0.5c0.2-0.2,0.4-0.5,0.7-0.6c1.8-0.5,2.5-1.3,2.5-3c-0.1-5.8-0.1-11.6-0.2-17.4
		c0-0.1-0.1-0.3-0.1-0.4C164.3,128.2,164.2,128.2,164.1,128.2z"/>
	<path d="M24.4,150.2c-1.4,0-2.9,0-4.3,0c-0.3,0-0.7-0.3-1-0.5c0.3-0.2,0.5-0.5,0.8-0.6c2.1-0.4,2.8-1.2,2.8-3.3c0-5.7,0-11.4,0-17
		c0-2.5-0.6-3.2-3-3.9c-0.2-0.1-0.4-0.4-0.6-0.5c0.2-0.2,0.5-0.5,0.7-0.5c3,0,5.9,0,8.9,0c0.3,0,0.5,0.3,0.8,0.5
		c-0.2,0.2-0.4,0.5-0.7,0.6c-1.8,0.5-2.6,1.3-2.6,3.1c-0.1,2.2-0.1,4.4,0,6.6c0,0.3,0.3,0.7,0.6,0.8c0.5,0.2,1.1,0.3,1.6,0.3
		c2.5,0,5,0,7.4,0c1.9,0,2.1-0.2,2.1-2c0-1.7,0-3.4,0-5.2c0-2.2-0.7-3.1-2.9-3.6c-0.3-0.1-0.5-0.4-0.7-0.6c0.3-0.2,0.5-0.5,0.8-0.5
		c2.9,0,5.8,0,8.8,0c0.2,0,0.5,0.3,0.7,0.5c-0.2,0.2-0.4,0.5-0.6,0.5c-2,0.6-2.6,1.3-2.6,3.5c0,6,0,11.9,0,17.9
		c0,1.8,0.6,2.5,2.4,2.9c0.3,0.1,0.5,0.4,0.8,0.6c-0.3,0.2-0.6,0.5-0.9,0.5c-2.8,0-5.7,0-8.5,0c-0.3,0-0.6-0.3-0.9-0.5
		c0.3-0.2,0.5-0.5,0.8-0.6c2-0.4,2.7-1.2,2.7-3.3c0-2.4,0-4.7,0-7.1c0-1-0.4-1.4-1.3-1.5c-1.2-0.1-2.5-0.1-3.7-0.1
		c-1.6,0-3.2,0-4.8,0c-1.7,0.1-2,0.4-2,2.2c0,2.2,0,4.4,0,6.6c0,2,0.6,2.7,2.5,3.2c0.3,0.1,0.5,0.4,0.8,0.6
		c-0.3,0.2-0.6,0.5-0.9,0.5C27.2,150.2,25.8,150.2,24.4,150.2z"/>
	<path d="M221.9,136.6c0.2,0.2,0.3,0.4,0.5,0.5c2.2,1.5,3.6,3.5,4.1,6.1c0.2,1.2,0.6,2.3,1.1,3.4c0.3,0.7,1,1.4,1.7,1.6
		c0.3,0.1,1-0.8,1.8-1.5c0.1,0.3,0.3,0.7,0.2,1.1c-0.3,1.4-1.6,2.6-2.7,2.8c-2,0.2-3.8-0.5-4.4-2.1c-0.7-1.7-1-3.6-1.6-5.4
		c-0.4-1.2-0.8-2.5-1.4-3.7c-1-2-2.1-2.6-4.3-2.2c-0.4,0.1-0.9,0.6-0.9,0.9c-0.1,2.8-0.1,5.7,0,8.5c0,1.4,0.8,2.1,2.3,2.4
		c0.3,0.1,0.6,0.4,0.9,0.6c-0.3,0.2-0.7,0.5-1,0.5c-2.7,0-5.4,0-8,0c-0.3,0-0.6-0.3-1-0.5c0.3-0.2,0.5-0.5,0.8-0.6
		c1.7-0.4,2.3-1.1,2.3-2.9c0-6.1,0-12.2,0-18.3c0-2-0.6-2.6-2.5-3c-0.3-0.1-0.5-0.4-0.8-0.6c0.3-0.2,0.6-0.5,0.9-0.5
		c3.8,0,7.7-0.1,11.5,0c4.2,0.1,7.1,3.5,6.6,7.3c-0.3,2.5-2,3.9-4.2,4.8C223.2,136.1,222.6,136.3,221.9,136.6z M218.7,125.2
		c-2.7,0-2.8,0.2-2.9,2.8c0,2.1,0,4.2,0,6.3c0,0.7,0.1,1.3,1,1.3c1.3,0,2.6,0,3.9-0.2c1.4-0.2,2.4-1,3-2.3c0.7-1.6,0.7-3.4,0.1-5
		C222.9,125.7,220.9,125.1,218.7,125.2z"/>
	<path d="M78.3,137.5c1.9-2,3.6-3.8,5.2-5.5c1.1-1.1,2.1-2.3,3.2-3.4c0.3-0.4,0.6-0.7,0.9-1.1c0.8-1.4,0.4-2.3-1.1-2.6
		c-0.3-0.1-0.6-0.4-0.9-0.6c0.3-0.2,0.7-0.5,1-0.5c2.4,0,4.7,0,7.1,0c0.4,0,0.7,0.3,1.1,0.5c-0.3,0.3-0.5,0.7-0.9,0.8
		c-1.5,0.2-2.6,1-3.5,2.1c-2,2.2-4.1,4.4-6.1,6.6c-0.4,0.4-0.6,0.7-0.2,1.3c2.7,3.9,5.3,7.8,8,11.6c0.9,1.3,1.9,2.3,3.6,2.5
		c0.2,0,0.4,0.5,0.7,1.1c-3.3,0-6.3,0-9.2,0c-0.2,0-0.5-0.4-0.7-0.6c0.2-0.2,0.5-0.5,0.7-0.5c1.3-0.3,1.6-0.7,0.8-1.8
		c-2.2-3.3-4.4-6.5-6.6-9.7c-0.1-0.1-0.2-0.2-0.4-0.3c-1.7,1.3-3,2.8-2.7,5.1c0.1,1.1,0,2.3,0,3.5c0,2,0.7,2.7,2.6,3.1
		c0.3,0.1,0.6,0.4,1,0.6c-0.4,0.2-0.7,0.5-1.1,0.5c-2.8,0-5.5,0-8.3,0c-0.3,0-0.6-0.3-1-0.5c0.3-0.2,0.5-0.5,0.8-0.6
		c1.8-0.4,2.5-1.2,2.5-3.1c0-6,0-11.9,0-17.9c0-2-0.7-2.8-2.7-3.2c-0.3-0.1-0.6-0.4-0.8-0.6c0.3-0.2,0.7-0.5,1-0.5
		c2.7,0,5.4,0,8.2,0c0.7,0,1.1,0.1,0.9,0.9c-2.8,0.8-3.1,1.2-3.1,4.1c0,2.4,0,4.9,0,7.3C78.3,136.5,78.3,136.8,78.3,137.5z"/>
	<path d="M275.8,123.6c2.3,0.1,4.5,0.1,6.8,0.3c5.1,0.6,8.4,3.6,9.7,8.6c0.8,3,0.7,6.1-0.1,9.1c-1.1,4.2-3.9,6.8-8,7.7
		c-2.5,0.6-5.1,0.6-7.7,0.8c-2.1,0.1-4.2,0-6.2,0c-0.3,0-0.6-0.3-0.9-0.5c0.3-0.2,0.5-0.5,0.8-0.6c2.1-0.4,2.5-0.8,2.6-3
		c0-6,0-12.1,0-18.1c0-1.7-0.5-2.7-2.4-2.8c-0.4,0-0.7-0.6-1.1-0.9c0.4-0.2,0.8-0.5,1.2-0.5C272.2,123.7,274,123.7,275.8,123.6
		C275.8,123.7,275.8,123.7,275.8,123.6z M276.2,136.7C276.2,136.7,276.2,136.7,276.2,136.7c0.1,3.3,0,6.6,0.1,9.9c0,1.4,0.7,2,2.1,2
		c0.8,0,1.7,0,2.5,0c3.3,0,5.9-1.9,6.9-5c1.1-3.5,1.1-7,0.6-10.6c-0.3-2-0.9-4-2.4-5.5c-2-2-4.4-2.5-7.1-2.4
		c-2.5,0.1-2.7,0.3-2.7,2.8C276.2,130.9,276.2,133.8,276.2,136.7z"/>
	<path d="M138.8,123.9c0.1,2.1,0.2,4.2,0.2,6.3c0,0.3-0.4,0.6-0.6,0.9c-0.1,0-0.2-0.1-0.3-0.1c-0.2-0.7-0.3-1.4-0.5-2
		c-0.7-2.4-2.2-3.6-4.7-3.8c-1.2-0.1-2.4-0.1-3.6,0c-1.5,0.1-2.2,0.7-2.2,2.3c0,2.2,0,4.4,0,6.6c0,1.1,0.4,1.7,1.6,1.5
		c0.3,0,0.6,0,0.8,0c2.6,0,3.5-0.7,4.1-3.2c0.2-0.8,0.4-1.2,1.4-0.8c0,0.9,0,2,0,3c0,2,0,3.9,0,5.9c0,0.4-0.4,0.7-0.6,1.1
		c-0.2-0.3-0.7-0.6-0.7-0.9c-0.6-3.4-2.1-3.6-5.3-3.5c-0.8,0-1.2,0.6-1.2,1.4c0,2.7,0,5.4,0,8.2c0,1.1,0.8,2,2,2
		c1.7,0,3.4,0,5.1-0.2c2.2-0.3,3.5-1.8,4.2-3.8c0.2-0.6,0.4-1.1,0.6-1.7c0.1-0.2,0.4-0.4,0.6-0.6c0.2,0.3,0.5,0.6,0.4,0.8
		c-0.1,1.5-0.3,2.9-0.5,4.4c-0.4,2.7-0.4,2.7-3.1,2.7c-5,0-10.1,0-15.1,0c-0.4,0-0.8-0.3-1.1-0.5c0.3-0.2,0.6-0.6,1-0.6
		c1.6-0.4,2.3-1.1,2.3-2.8c0-6,0-12.1,0-18.1c0-2-0.8-2.8-2.8-3.3c-0.3-0.1-0.5-0.4-0.7-0.6c0.2-0.2,0.5-0.5,0.7-0.5
		c5.8,0,11.7,0,17.5,0C138.5,123.8,138.5,123.8,138.8,123.9z"/>
	<path d="M250.3,130.9c-0.2-0.7-0.3-1.3-0.5-2c-0.7-2.3-2.2-3.6-4.6-3.7c-1.2-0.1-2.5-0.1-3.7,0c-1.5,0.1-2.1,0.8-2.2,2.3
		c0,2.2,0,4.4,0,6.6c0,1.1,0.4,1.6,1.6,1.5c0.5-0.1,1,0,1.6,0c1.7-0.1,2.7-0.9,3.2-2.5c0.1-0.4,0.1-0.8,0.3-1.2
		c0.1-0.2,0.5-0.4,0.8-0.5c0.2,0,0.5,0.4,0.5,0.6c0,2.9,0,5.8,0,8.8c0,0.2-0.4,0.6-0.6,0.6c-0.2,0-0.4-0.3-0.6-0.5c0,0,0-0.2,0-0.2
		c-0.5-3.6-2.2-3.7-5.2-3.6c-0.9,0-1.3,0.5-1.3,1.4c0,2.7,0,5.4,0,8c0,1.2,0.8,2.1,2,2.1c1.7,0,3.4,0,5.1-0.2c2-0.3,3.3-1.6,4.1-3.5
		c0.2-0.6,0.4-1.2,0.7-1.8c0.2-0.3,0.5-0.6,0.8-0.8c0.1,0.3,0.3,0.7,0.3,1c-0.1,1.4-0.3,2.9-0.5,4.3c0,0.4-0.1,0.7-0.1,1.1
		c0.1,1.2-0.4,1.5-1.6,1.5c-5.4-0.1-10.8,0-16.2,0c-0.4,0-0.9,0-1.3,0c-0.1-0.1-0.2-0.3-0.2-0.4c0.3-0.2,0.6-0.6,0.9-0.7
		c2-0.4,2.5-1.1,2.5-3.2c0-5.8,0-11.7,0-17.5c0-2.1-0.7-3.1-2.6-3.6c-0.3-0.1-0.6-0.4-0.8-0.6c0.3-0.2,0.6-0.5,1-0.5
		c3.9,0,7.8,0,11.6,0c1.7,0,3.4,0,5,0c0.7,0,1,0.1,1,0.9c0,1.8,0.2,3.7,0.2,5.5c0,0.3-0.4,0.7-0.5,1
		C250.5,131.1,250.4,131,250.3,130.9z"/>
	<path d="M115,131c-0.2-0.7-0.3-1.4-0.5-2.1c-0.8-2.3-2.2-3.5-4.6-3.7c-1.2-0.1-2.4-0.1-3.6,0c-1.5,0.1-2.2,0.7-2.2,2.2
		c0,2.2,0,4.3,0,6.5c0,1.5,0.2,1.7,1.7,1.7c0.5,0,1,0,1.6,0c1.7-0.1,2.7-0.9,3.1-2.5c0.1-0.4,0.1-0.8,0.3-1.2
		c0.1-0.2,0.5-0.5,0.8-0.5c0.2,0,0.5,0.4,0.5,0.6c0,2.9,0,5.8,0,8.8c0,0.2-0.4,0.6-0.6,0.6c-0.2,0-0.4-0.3-0.6-0.5
		c-0.1-0.1,0-0.2-0.1-0.3c-0.5-3.3-2-3.6-5.3-3.5c-0.8,0-1.2,0.6-1.2,1.4c0,2.7,0,5.4,0,8c0,1.2,0.8,2.1,2,2.1c1.7,0,3.4,0,5-0.2
		c2.1-0.3,3.4-1.6,4.2-3.5c0.3-0.7,0.5-1.4,0.8-2c0.1-0.2,0.4-0.4,0.6-0.6c0.1,0.3,0.4,0.6,0.4,0.8c-0.1,1.6-0.3,3.1-0.6,4.6
		c-0.3,2.4-0.3,2.4-2.8,2.4c-5.1,0-10.2,0-15.2,0c-0.4,0-0.8-0.3-1.2-0.5c0.3-0.2,0.7-0.5,1-0.6c1.6-0.4,2.3-1.1,2.3-2.8
		c0-6,0-12.1,0-18.1c0-1.9-0.8-2.8-2.7-3.3c-0.3-0.1-0.6-0.4-0.8-0.6c0.3-0.2,0.6-0.5,0.9-0.5c5.6,0,11.3,0,16.9,0
		c0.7,0,0.9,0.3,0.9,0.9c0,1.8,0.1,3.6,0.2,5.4C116.1,130.8,115.9,131.1,115,131z"/>
	<path d="M130.7,105.3c3.2,0,6.1,0,9.1,0c1.5,0,1.6,0.1,1.6,1.5c0,1.4-0.1,1.6-1.6,1.6c-13.7,0-27.4,0-41,0c-1.4,0-1.5-0.2-1.5-1.6
		c-0.1-1.2,0.5-1.5,1.6-1.5c2.6,0.1,5.2,0,7.8,0c1,0,1.3-0.3,1.3-1.3c0-5.5,0-11,0-16.6c0-0.5,0.4-0.9,0.6-1.4
		c0.4,0.3,0.9,0.5,1.1,0.8c4.2,7.2,10.7,11.4,18.5,13.8c0.1,0,0.2,0,0.2,0.1c2.4,0.8,2.4,0.1,2.3,3.1
		C130.7,104.2,130.7,104.7,130.7,105.3z M109.5,90.2c0,5.4,0,11,0,16.5c6.6,0,13.1,0,19.6,0c0-1.2,0.1-2.4,0-3.5
		c0-0.4-0.5-0.9-0.8-1c-4.5-0.7-8.4-2.8-11.9-5.5C113.9,94.8,111.8,92.4,109.5,90.2z"/>
	<path d="M184.5,122.7c0.5,0.7,0.9,1.1,1.1,1.6c2.7,7.5,5.3,15,8,22.4c0.4,1,0.9,1.8,2.1,2.1c0.4,0.1,0.6,0.6,1,0.9
		c-0.4,0.2-0.8,0.4-1.2,0.5c-2.5,0-5,0-7.6,0c-0.3,0-0.7-0.3-1-0.5c0.3-0.3,0.6-0.6,0.9-0.8c0.3-0.2,0.7-0.2,1-0.3
		c0.9-0.2,1.3-0.7,1-1.7c-0.6-1.7-1.1-3.4-1.7-5.1c-0.3-0.9-1-1.2-1.9-1.3c-2,0-3.9,0-5.9,0c-0.8,0-1.3,0.4-1.6,1.2
		c-0.4,1.4-0.8,2.8-1.2,4.3c-0.4,1.8,0.1,2.6,1.9,3c0.4,0.1,0.7,0.4,1,0.7c-0.4,0.1-0.7,0.4-1.1,0.4c-2,0-4,0-6,0
		c-0.3,0-0.6-0.3-0.8-0.4c0.2-0.2,0.3-0.6,0.5-0.7c1.4-0.5,2.1-1.7,2.5-3c2.8-7.5,5.5-14.9,8.3-22.4
		C184.2,123.5,184.2,123.3,184.5,122.7z M183.9,128.9c-0.2,0.1-0.3,0.2-0.3,0.2c-1.1,2.9-2.2,5.8-3.3,8.7c-0.3,0.9,0.2,1.2,1,1.2
		c1.6,0,3.2,0,4.8,0c1,0,1.2-0.4,0.9-1.3C186,134.9,185,131.9,183.9,128.9z"/>
	<path d="M58.3,123c0.3,0.4,0.7,0.8,0.9,1.3c2.7,7.4,5.3,14.9,8,22.4c0.4,1.1,1,2,2.3,2.2c0.7,0.1,1.1,0.5,0.7,1.4
		c-2.9,0-5.9,0-8.9,0c-0.2,0-0.6-0.4-0.6-0.5c0.1-0.3,0.3-0.7,0.6-0.7c2.7-0.8,2.7-0.8,1.9-3.4c-0.4-1.1-0.8-2.3-1.1-3.4
		c-0.3-1-1-1.5-2-1.6c-1.9,0-3.8,0-5.8,0c-0.9,0-1.4,0.4-1.7,1.3c-0.4,1.4-0.8,2.8-1.1,4.2c-0.5,1.9,0.1,2.7,2,3.1
		c0.3,0.1,0.6,0.4,0.9,0.6c-0.3,0.2-0.6,0.5-1,0.5c-2,0-4.1,0-6.1,0c-0.3,0-0.6-0.3-0.8-0.4c0.2-0.3,0.3-0.7,0.6-0.7
		c1.4-0.5,2-1.7,2.4-2.9c2.7-7.4,5.5-14.8,8.2-22.3c0.1-0.2,0.2-0.4,0.3-0.6C58,123.1,58.2,123,58.3,123z M57.5,129
		c-0.1,0.1-0.3,0.1-0.3,0.1c-1.1,3-2.3,6-3.3,9c-0.3,0.7,0.3,1,0.9,1c1.7,0,3.4,0,5,0c0.8,0,1-0.4,0.8-1.1
		C59.6,135,58.6,132,57.5,129z"/>
	<path d="M114.3,165c2-0.4,2.1-0.3,2.5,1.7c0.9,4.7,1.9,9.4,2.9,14.4c0.2-0.5,0.4-0.8,0.5-1.1c1.1-4.8,2.1-9.5,3.2-14.3
		c0.2-0.9,0.7-0.9,1.4-0.9c0.6,0,1.1,0,1.3,0.9c0.9,4.5,1.8,9.1,2.8,13.6c0.1,0.5,0.2,1.1,0.6,1.7c0.2-1.1,0.5-2.2,0.7-3.4
		c0.8-3.7,1.7-7.4,2.5-11.1c0.4-1.8,0.4-1.9,2.5-1.5c-0.8,3.1-1.5,6.2-2.3,9.3c-0.7,3-1.5,6-2.2,9c-0.2,0.8-0.6,1.2-1.5,1.2
		c-0.8,0-1.2-0.3-1.3-1.1c-0.9-4.8-1.9-9.6-2.9-14.4c0-0.2-0.1-0.4-0.4-0.6c-0.4,1.8-0.8,3.7-1.2,5.5c-0.8,3.2-1.6,6.4-2.3,9.7
		c-0.2,0.8-0.7,0.9-1.3,0.9c-0.6,0-1.2,0.1-1.4-0.8c-1.3-6.1-2.7-12.2-4.1-18.4C114.3,165.2,114.3,165.1,114.3,165z"/>
	<path d="M79.6,168.2c0,5.4,0,10.7,0,16.1c-0.6,0-1.2,0-1.8,0c0-6.4,0-12.8,0-19.2c1.8-0.5,2.1-0.4,3,1.2c2.6,4.7,5.2,9.5,7.9,14.3
		c0-5.2,0-10.4,0-15.6c0.7,0,1.2,0,1.9,0c0,6.4,0,12.8,0,19.2c-1.7,0.5-2,0.4-2.8-1.1c-2.6-4.9-5.2-9.8-7.8-14.7
		C79.9,168.3,79.8,168.3,79.6,168.2z"/>
	<path d="M260.5,123.7c1.4,0,2.9,0,4.3,0c0.3,0,0.5,0.3,0.8,0.5c-0.2,0.2-0.4,0.5-0.7,0.6c-1.9,0.5-2.6,1.3-2.6,3.4
		c0,6,0,12.1,0,18.1c0,1.6,0.8,2.4,2.4,2.8c0.4,0.1,0.7,0.4,1,0.6c-0.4,0.2-0.8,0.5-1.2,0.5c-2.7,0-5.4,0-8.1,0
		c-0.3,0-0.6-0.3-1-0.5c0.3-0.2,0.5-0.5,0.8-0.6c1.8-0.4,2.5-1.2,2.5-3.1c0-5.8,0-11.5,0-17.3c0-2.5-0.5-3.1-2.9-3.9
		c-0.2-0.1-0.4-0.4-0.5-0.6c0.2-0.2,0.5-0.4,0.7-0.5C257.6,123.7,259,123.7,260.5,123.7z"/>
	<path d="M181.6,174.6c-0.3,2.3-0.7,4.4-1.8,6.4c-2.6,4.8-9,5.1-12.1,0.6c-2.5-3.7-2.4-10.4,0.2-14c1.6-2.1,3.7-3.3,6.4-3
		c3.1,0.3,5,2.1,6.1,4.9C181.1,171.1,181.3,172.9,181.6,174.6z M179.1,174.6c0.1,0,0.2-0.1,0.3-0.1c-0.5-1.8-0.9-3.6-1.6-5.3
		c-0.7-1.7-2.2-2.8-4.1-2.8c-1.9,0-3.4,1.1-4.2,2.7c-1.8,3.6-1.8,7.3,0,10.9c0.8,1.7,2.3,2.7,4.2,2.8c1.9,0,3.3-1.1,4.2-2.7
		C178.8,178.4,179.2,176.5,179.1,174.6z"/>
	<path d="M196.1,175c3.2,2.4,2.3,6.2,3.7,9.2c-2.1,0.4-2.2,0.3-2.6-1.4c-0.3-1.3-0.5-2.6-0.8-3.9c-0.6-2.4-2.7-3.7-5-2.9
		c-0.3,0.1-0.5,0.7-0.5,1c0,2,0,3.9,0,5.9c0,0.4,0,0.9,0,1.4c-0.7,0-1.3,0-2.1,0c0-0.4,0-0.8,0-1.1c0-5.6,0-11.1,0-16.7
		c0-0.9,0.2-1.3,1.2-1.3c1.8,0,3.6-0.2,5.4,0c2.4,0.3,3.6,1.6,4,3.9c0.4,2.3-0.4,4.4-2.3,5.5C196.7,174.7,196.5,174.8,196.1,175z
		 M190.8,170.4C190.8,170.4,190.8,170.4,190.8,170.4c0,0.3,0,0.6,0,0.8c0,3,0.2,3.3,3.3,2.8c1.7-0.3,2.9-1.6,3-3.3
		c0.1-2-0.8-3.4-2.6-3.8c-0.9-0.2-1.9-0.2-2.8-0.1c-0.3,0-0.8,0.6-0.8,0.9C190.8,168.6,190.8,169.5,190.8,170.4z"/>
	<path d="M206.5,164.9c0.7,0,1.3,0,2.1,0c0,3,0,6,0,8.9c0.1,0,0.2,0,0.3,0.1c0.6-0.9,1.2-1.7,1.8-2.6c1.2-1.7,2.6-3.4,3.7-5.2
		c0.9-1.4,2-1.4,3.5-1.2c-1.7,2.2-3.3,4.4-4.9,6.5c-1.3,1.6-1.3,1.6-0.2,3.4c1.7,2.8,3.4,5.6,5,8.4c0.2,0.3,0.3,0.5,0.5,0.8
		c-2,0.5-2.3,0.4-3.2-1.2c-1.4-2.4-2.8-4.8-4.3-7.2c-0.2-0.3-0.4-0.6-0.7-0.9c-1,1-1.8,2-1.7,3.5c0.1,1.9,0,3.9,0,5.9
		c-0.7,0-1.3,0-2,0C206.5,177.9,206.5,171.4,206.5,164.9z"/>
	<path d="M98.9,164.9c3.1,0,6,0,8.9,0c0.3,1.8,0.3,1.9-1.4,1.9c-1.5,0-3,0-4.6,0c-0.7,0-1,0.3-1,1c0,1.5,0,3,0,4.6c0,0.7,0.2,1,1,1
		c0.9,0,1.8,0,2.8,0c0.9,0,1.8,0,2.7,0c0.6,1.7,0.4,2-1.3,2c-1.4,0-2.8,0-4.2,0c-0.7,0-1,0.2-1,1c0,1.7,0,3.4,0,5.2
		c0,0.8,0.3,1,1.1,1c1.6,0,3.2,0,4.8,0c1.7,0,1.7,0,1.5,1.9c-3.1,0-6.2,0-9.4,0C98.9,177.8,98.9,171.4,98.9,164.9z"/>
	<path d="M156,184.3c-0.8,0-1.3,0-2.1,0c0-1.6-0.1-3.2,0-4.8c0.2-2.4-0.4-4.6-1.6-6.7c-1.3-2.3-2.3-4.7-3.5-7.1
		c-0.1-0.2-0.2-0.4-0.3-0.7c2.1-0.5,2.2-0.4,2.9,1.3c1.1,2.5,2.3,5.1,3.5,7.9c0.3-0.7,0.5-1.3,0.8-1.8c0.9-2,1.8-4.1,2.8-6.1
		c0.8-1.7,0.8-1.7,3-1.5c-0.2,0.4-0.3,0.7-0.5,1.1c-1.5,2.9-3.1,5.9-4.5,8.8c-0.4,0.7-0.6,1.6-0.6,2.4
		C155.9,179.6,156,181.9,156,184.3z"/>
	<path d="M157.1,114.1c-7.4,0-14.8,0-22.1,0c0-0.1,0-0.3,0-0.4c7.4,0,14.7,0,22.1,0C157.1,113.8,157.1,114,157.1,114.1z"/>
	<path class="st0" d="M161.9,106.7c-0.4-2.5-2.3-4.1-3.2-6.4c0.5-0.3,1-0.5,1.5-0.8c6.7-3.2,12-7.9,14.9-14.8
		c4.1-9.7,2.1-18.4-4.8-26.1c-1.8-2-3.9-3.7-6.2-5.1c-8.8-5.3-17.7-10.4-26.5-15.5c-4.9-2.8-9.8-5.6-14.6-8.5
		c-1.5-0.9-2.8-2.2-3.9-3.5c-3.4-4.1-3.4-8.8-0.1-13c3-3.9,7.2-6.1,11.8-7.4c5.6-1.6,11.2-2,16.9-0.6c5,1.2,8,4.4,8.3,9.5
		c0.2,3,0,6-0.2,9c-0.2,3.1-0.4,6.2,0.3,9.3c1.1,4.7,4.2,7.1,8.8,7.8c4,0.6,8-1.2,10.2-4.8c2.2-3.6,2.4-7.4,1.4-11.3
		c-2.8-10.6-9.9-17.2-19.8-20.9c-0.5-0.2-1-0.3-1.5-0.5c-0.5-0.1-0.9-0.3-1.4-0.7c0.3,0,0.7,0,1,0c14.7,2,24.8,12.4,26.9,25.2
		c1.9,11.6-1.8,21.3-10.4,29.3c-1.1,1-1.2,1.3-0.1,2.4c8.5,8.6,9.3,21,2,30.5c-0.7,0.9-0.7,1.6-0.1,2.5c2.1,3.5,4,7.1,6.1,10.6
		c0.8,1.3,1.6,2.5,2.5,3.8C175.1,106.7,168.5,106.7,161.9,106.7z"/>
	<path class="st0" d="M109.6,44c0.3,0.3,0.5,0.5,0.7,0.8c2.8,3.6,6.3,6.3,10.2,8.6c12.3,7.1,24.6,14.1,36.9,21.2
		c2.4,1.4,4.7,3.1,6.3,5.5c2.4,3.6,2.4,7.3,0.1,10.9c-1.6,2.5-3.9,4.3-6.4,5.9c-0.6,0.4-0.9,0.2-1.2-0.4c-3.8-6.3-7.8-12.5-11.2-19
		c-3.1-5.9-7.9-8.5-14.3-8.9c-1.3-0.1-1.6,0.1-1.6,1.5c0,5.4,0,10.8,0,16.2c0,2.3-0.2,4.6-0.2,6.8c0,1.4,0.1,2.8,0.2,4.3
		c-0.3-0.3-0.7-0.6-0.9-0.9c-2-2.4-2.6-5.3-2.5-8.3c0.1-3.6,0.6-7.3,0.7-10.9c0.1-1.9-0.1-3.9-0.7-5.7c-2-6.1-8.8-8.8-14.7-6
		c-0.5,0.2-0.9,0.5-1.5,0.8C109.6,58.8,109.6,51.5,109.6,44z"/>
	<path class="st0" d="M156.4,99.4c-5.4,1.9-10.8,2.9-16.4,2.9c0.2-1.2-0.5-1.4-1.4-1.6c-1.7-0.4-3.3-0.9-4.9-1.5
		c-2-0.8-2.9-2.1-2.9-4.5c0.2-7.3,0-14.5,0-21.8c0-0.9,0-1.8,0-2.8c4.5,0.4,8.3,2,10.9,5.5c1.6,2.2,3,4.6,4.4,7
		c3.1,5.2,6.2,10.4,9.4,15.6C155.6,98.5,156,98.8,156.4,99.4z"/>
	<path class="st0" d="M148.1,3c1,0.2,2,0.3,2.9,0.5c8.8,2,16.1,6,20.9,13.9c2.3,3.8,3.8,8,3.7,12.6c-0.2,3.8-1.9,6.7-5.4,8.2
		c-3.5,1.5-6.9,1-9.9-1.4c-1.9-1.6-3.1-3.7-3.1-6.1c0-3.8,0.5-7.7,0.5-11.5c0.1-2.2,0-4.5-0.4-6.7c-0.9-4.8-4-7.6-8.5-9
		c-0.2-0.1-0.4-0.1-0.7-0.2C148.1,3.3,148.1,3.3,148.1,3z"/>
	<path class="st0" d="M109.5,2c7,0,14,0,21,0c-8.2,2.5-15.5,6.4-21,13.7C109.5,10.9,109.5,6.5,109.5,2z"/>
	<path class="st0" d="M218.7,125.2c2.2-0.2,4.2,0.5,5.1,2.8c0.6,1.7,0.6,3.4-0.1,5c-0.5,1.3-1.5,2.2-3,2.3c-1.3,0.2-2.6,0.2-3.9,0.2
		c-0.9,0-1-0.6-1-1.3c0-2.1,0-4.2,0-6.3C215.8,125.4,216,125.2,218.7,125.2z"/>
	<path class="st0" d="M276.2,136.7c0-2.9,0-5.8,0-8.7c0-2.5,0.3-2.7,2.7-2.8c2.7-0.1,5.2,0.4,7.1,2.4c1.5,1.5,2.2,3.5,2.4,5.5
		c0.5,3.5,0.5,7.1-0.6,10.6c-1.1,3.2-3.6,5-6.9,5c-0.8,0-1.7,0-2.5,0c-1.4,0-2.1-0.6-2.1-2C276.2,143.4,276.2,140,276.2,136.7
		C276.2,136.7,276.2,136.7,276.2,136.7z"/>
	<path class="st0" d="M109.5,90.2c2.3,2.2,4.4,4.6,6.9,6.5c3.5,2.7,7.4,4.8,11.9,5.5c0.3,0.1,0.8,0.6,0.8,1c0.1,1.1,0,2.3,0,3.5
		c-6.5,0-13.1,0-19.6,0C109.5,101.2,109.5,95.6,109.5,90.2z"/>
	<path class="st0" d="M183.9,128.9c1,3,2.1,6,3.1,8.9c0.3,0.9,0.1,1.3-0.9,1.3c-1.6,0-3.2,0-4.8,0c-0.8,0-1.3-0.3-1-1.2
		c1.1-2.9,2.2-5.8,3.3-8.7C183.7,129.1,183.7,129.1,183.9,128.9z"/>
	<path class="st0" d="M57.5,129c1,3,2.1,6,3.1,9c0.2,0.7,0,1.1-0.8,1.1c-1.7,0-3.4,0-5,0c-0.6,0-1.2-0.3-0.9-1c1.1-3,2.2-6,3.3-9
		C57.3,129,57.4,129,57.5,129z"/>
	<path class="st0" d="M179.1,174.6c0.1,2-0.3,3.8-1.2,5.5c-0.9,1.7-2.3,2.7-4.2,2.7c-1.9,0-3.3-1.1-4.2-2.8c-1.8-3.6-1.7-7.3,0-10.9
		c0.8-1.7,2.2-2.7,4.2-2.7c1.9,0,3.4,1,4.1,2.8c0.7,1.7,1.1,3.5,1.6,5.3C179.3,174.5,179.2,174.5,179.1,174.6z"/>
	<path class="st0" d="M190.8,170.4c0-0.9-0.1-1.8,0-2.7c0-0.3,0.5-0.9,0.8-0.9c0.9-0.1,1.9-0.1,2.8,0.1c1.9,0.4,2.8,1.8,2.6,3.8
		c-0.1,1.7-1.3,3.1-3,3.3c-3.1,0.5-3.3,0.3-3.3-2.8C190.8,171,190.8,170.7,190.8,170.4C190.8,170.4,190.8,170.4,190.8,170.4z"/>
</g>
</svg>
