<?xml version="1.0" encoding="utf-8"?>
<!-- Generator: Adobe Illustrator 19.1.0, SVG Export Plug-In . SVG Version: 6.00 Build 0)  -->
<svg version="1.1" id="Layer_1_xA0_Image_1_" xmlns="http://www.w3.org/2000/svg" xmlns:xlink="http://www.w3.org/1999/xlink"
	 x="0px" y="0px" viewBox="0 0 792 1008" style="enable-background:new 0 0 792 1008;" xml:space="preserve">
<style type="text/css">
	.st0{fill:#FFFFFF;}
</style>
<g>
	<path class="st0" d="M246,491.1c0-47.2,0-94.4,0-141.6c97.7,0,195.4,0,293,0c0,61.7,0,123.4,0,185c-97.7,0-195.4,0-293,0
		c0-13.4,0-26.9,0-40.3c0.3,2,0.6,4.1,0.9,6.3c0.7-0.4,1.3-0.6,1.7-1c0.6-0.5,1.1-0.4,1.8,0c2.4,1.3,4.9,1.5,7.4,0.4
		c3.7-1.7,5.3-7.4,3.4-11.4c-1-1.9-2.7-2.9-4.5-3.7c-2.2-1.1-4.5-2.1-6.5-3.4c-1.5-1-1.7-2.7-1.1-4.4c0.5-1.7,1.7-2.6,3.4-2.8
		c2-0.3,3.8,0.3,5,2c0.9,1.3,1.4,2.8,2.2,4.2c0.2,0.3,0.5,0.6,0.8,0.8c0.1-0.3,0.4-0.7,0.4-1c0-1.3-0.1-2.6-0.2-3.8
		c-0.1-1.1-0.4-2.2-0.6-3.5c-0.4,0.2-0.6,0.2-0.7,0.4c-1.2,1.1-2.3,0.7-3.6,0c-2.5-1.4-5.6-0.6-7.5,1.7c-3.2,3.9-2,9.8,2.6,12.1
		c1.8,0.9,3.7,1.5,5.5,2.3c2.7,1.1,4,3.8,3.1,6.3c-0.9,2.6-4.1,4.1-6.8,3.1c-3-1.1-4.7-3.4-5.2-6.5C247.1,491.3,246.8,491,246,491.1
		z M405.6,454.6c-0.5,0.1-0.8,0.1-1.1,0.1c-2.2,0-4.4,0.1-6.6,0c-1.2,0-1.5,0.5-1.5,1.6c0,1.1,0.3,1.6,1.5,1.6c13.7,0,27.4,0,41.2,0
		c1.2,0,1.5-0.5,1.5-1.6c0-1.1-0.3-1.6-1.5-1.6c-3.1,0.1-6.2,0.1-9.2,0c-0.5,0-1.1-0.3-1.3-0.7c-2.2-3.4-4.4-6.9-6.6-10.3
		c-0.6-0.9-1.2-1.8-1.7-2.8c-0.1-0.2,0-0.7,0.2-1c1-1.6,2.3-3.1,3.2-4.7c2.5-4.8,3.1-9.9,1.9-15.1c-1-4.3-2.8-8-6-11.1
		c-1-1-1-1.6,0-2.6c0.5-0.5,1.1-0.9,1.6-1.5c9-10.2,11.2-21.8,6.3-34.5c-4.3-11.2-14.9-20.5-30.8-20.5c-17.3,0-34.6,0-51.8,0
		c-1.1,0-1.6,0.4-1.5,1.5c0.1,1.4,0.2,1.6,1.6,1.6c2.7,0,5.4,0.1,8.2,0.1c0.6,0,0.9,0.1,0.9,0.9c0,4.5,0,8.9,0,13.4
		c0,0.4,0.4,0.8,0.6,1.2c0.4-0.2,0.9-0.4,1.1-0.7c3.3-5.2,7.9-9,13.4-11.6c0.7-0.3,1.4-0.6,2.1-0.9c-1.3,1-2.7,1.8-3.9,2.8
		c-1.2,1-2.4,2.1-3.4,3.4c-4.1,5-3.9,11,0.6,15.6c1.8,1.8,3.9,3.4,6.1,4.7c11.5,6.7,23,13.3,34.6,19.9c3.5,2,6.9,4.1,9.7,7.2
		c6.6,7.4,8.8,15.6,4.8,25c-2.6,6.1-7.4,10.2-13.2,13.2c-0.8,0.4-1.7,0.8-2.5,1.2c0.3-0.5,0.7-0.8,1.1-1.1c1.6-1.4,3.3-2.6,4.7-4.1
		c4.8-5.4,4.5-11.8-0.7-16.8c-1.6-1.6-3.5-2.9-5.5-4.1c-12.1-7-24.3-13.8-36.4-20.8c-4.6-2.6-8.5-6-11.4-10.6
		c-0.2-0.4-0.8-0.6-1.3-0.9c-0.2,0.5-0.5,1-0.5,1.4c0,8.5,0,17,0,25.4c0,0.5,0.3,0.9,0.4,1.4c0.5-0.2,1-0.2,1.4-0.5
		c1.5-1.1,3.1-2,5-2.1c4.4-0.3,8.4,2.6,9.7,7c0.8,2.6,0.3,5.3,0.2,8c-0.2,3.3-0.5,6.6-0.2,9.8c0.4,5.1,3.4,8.5,8.2,10.2
		c1.3,0.5,2.7,0.8,4.1,1.2c-0.4,1.2,0.3,1.5,1.3,1.6c4.2,0.5,8.5,0.5,12.7-0.2c2.3-0.4,4.5-1.1,7-1.7
		C404.2,452.3,404.9,453.4,405.6,454.6z M410.1,477.7c0.1,0,0.2,0,0.2,0c0,0.1,0.1,0.3,0.1,0.4c0.1,5.8,0.2,11.6,0.2,17.4
		c0,1.8-0.7,2.6-2.5,3c-0.3,0.1-0.5,0.4-0.7,0.6c0.3,0.2,0.6,0.5,0.9,0.5c2.8,0,5.5,0,8.3,0c0.3,0,0.6-0.3,0.9-0.5
		c-0.2-0.2-0.4-0.5-0.7-0.6c-1.8-0.5-2.5-1.3-2.5-3.1c-0.1-6.1-0.3-12.2-0.4-18.3c0-1.9,0.6-2.5,2.5-2.8c0.3,0,0.6-0.4,0.9-0.6
		c-0.3-0.2-0.6-0.5-0.9-0.5c-1.8,0-3.6,0-5.4,0c-0.8,0-1,0.3-1.3,1c-1.8,5.4-3.7,10.8-5.5,16.2c-0.3,0.9-0.6,1.7-1.1,2.9
		c-0.3-0.5-0.4-0.8-0.5-1c-2.2-6-4.3-12-6.4-18.1c-0.3-0.7-0.6-1-1.3-1c-1.8,0-3.6,0-5.4,0c-0.3,0-0.6,0.3-1,0.5
		c0.3,0.2,0.6,0.5,1,0.5c2.2,0.2,2.7,0.7,2.6,2.8c-0.1,5.8-0.2,11.7-0.3,17.5c0,2.2-0.7,3.1-2.9,4c-0.2,0.1-0.4,0.4-0.5,0.7
		c0,0.1,0.3,0.4,0.5,0.4c2.6,0,5.2,0,7.8,0c0.1-0.1,0.2-0.2,0.2-0.3c-0.2-0.3-0.4-0.7-0.7-0.8c-2.3-0.6-2.9-1.3-2.9-3.7
		c0-5.4,0-10.8,0.1-16.2c0-0.2,0.1-0.5,0.2-1.1c0.3,0.7,0.5,1.1,0.6,1.5c2.4,6.5,4.8,13.1,7.2,19.6c0.1,0.4,0.5,0.6,0.7,0.9
		c0.3-0.3,0.7-0.6,0.8-1c1.2-3.5,2.4-7.1,3.6-10.7C407.8,484.6,409,481.2,410.1,477.7z M270.4,499.7c1.4,0,2.8,0,4.2,0
		c0.3,0,0.6-0.3,0.9-0.5c-0.3-0.2-0.5-0.5-0.8-0.6c-1.9-0.5-2.5-1.2-2.5-3.2c0-2.2,0-4.4,0-6.6c0-1.7,0.3-2.1,2-2.2
		c1.6-0.1,3.2,0,4.8,0c1.2,0,2.5,0,3.7,0.1c0.9,0.1,1.3,0.5,1.3,1.5c-0.1,2.4,0,4.7,0,7.1c0,2.1-0.7,2.8-2.7,3.3
		c-0.3,0.1-0.5,0.4-0.8,0.6c0.3,0.2,0.6,0.5,0.9,0.5c2.8,0,5.7,0,8.5,0c0.3,0,0.6-0.3,0.9-0.5c-0.3-0.2-0.5-0.5-0.8-0.6
		c-1.8-0.4-2.4-1.1-2.4-2.9c0-6,0-11.9,0-17.9c0-2.1,0.6-2.8,2.6-3.5c0.2-0.1,0.4-0.4,0.6-0.5c-0.2-0.2-0.5-0.5-0.7-0.5
		c-2.9,0-5.8,0-8.8,0c-0.3,0-0.5,0.3-0.8,0.5c0.2,0.2,0.4,0.5,0.7,0.6c2.2,0.6,2.9,1.4,2.9,3.6c0,1.7,0,3.4,0,5.2c0,1.8-0.2,2-2.1,2
		c-2.5,0-5,0-7.4,0c-0.6,0-1.1-0.1-1.6-0.3c-0.3-0.1-0.6-0.5-0.6-0.8c0-2.2-0.1-4.4,0-6.6c0.1-1.8,0.8-2.6,2.6-3.1
		c0.3-0.1,0.5-0.4,0.7-0.6c-0.3-0.2-0.5-0.5-0.8-0.5c-3,0-5.9,0-8.9,0c-0.3,0-0.5,0.3-0.7,0.5c0.2,0.2,0.4,0.5,0.6,0.5
		c2.4,0.6,3,1.4,3,3.9c0,5.7,0,11.4,0,17c0,2.2-0.7,2.9-2.8,3.3c-0.3,0.1-0.6,0.4-0.8,0.6c0.3,0.2,0.7,0.5,1,0.5
		C267.5,499.7,268.9,499.7,270.4,499.7z M467.9,486.1c0.7-0.3,1.3-0.4,1.9-0.6c2.2-0.9,3.8-2.3,4.2-4.8c0.5-3.9-2.4-7.2-6.6-7.3
		c-3.8-0.1-7.7,0-11.5,0c-0.3,0-0.6,0.3-0.9,0.5c0.3,0.2,0.5,0.5,0.8,0.6c1.9,0.4,2.5,1.1,2.5,3c0,6.1,0,12.2,0,18.3
		c0,1.8-0.6,2.5-2.3,2.9c-0.3,0.1-0.6,0.4-0.8,0.6c0.3,0.2,0.6,0.5,1,0.5c2.7,0,5.4,0,8,0c0.3,0,0.7-0.3,1-0.5
		c-0.3-0.2-0.6-0.6-0.9-0.6c-1.6-0.4-2.3-1-2.3-2.4c-0.1-2.8-0.1-5.7,0-8.5c0-0.3,0.5-0.9,0.9-0.9c2.1-0.3,3.3,0.3,4.3,2.2
		c0.6,1.2,1,2.4,1.4,3.7c0.6,1.8,0.9,3.6,1.6,5.4c0.6,1.6,2.4,2.4,4.4,2.1c1.1-0.1,2.4-1.4,2.7-2.8c0.1-0.3-0.1-0.7-0.2-1.1
		c-0.7,0.6-1.4,1.6-1.8,1.5c-0.7-0.2-1.3-0.9-1.7-1.6c-0.5-1.1-0.9-2.2-1.1-3.4c-0.5-2.6-1.9-4.6-4.1-6.1
		C468.2,486.5,468.1,486.3,467.9,486.1z M324.3,487c0-0.7-0.1-1.1-0.1-1.5c0-2.4,0-4.9,0-7.3c0-2.9,0.3-3.3,3.1-4.1
		c0.3-0.8-0.2-0.9-0.9-0.9c-2.7,0-5.4,0-8.2,0c-0.3,0-0.7,0.3-1,0.5c0.3,0.2,0.5,0.5,0.8,0.6c1.9,0.4,2.6,1.2,2.7,3.2
		c0,6,0,11.9,0,17.9c0,1.9-0.6,2.7-2.5,3.1c-0.3,0.1-0.6,0.4-0.8,0.6c0.3,0.2,0.6,0.5,1,0.5c2.8,0,5.5,0,8.3,0
		c0.4,0,0.7-0.3,1.1-0.5c-0.3-0.2-0.6-0.5-1-0.6c-1.9-0.4-2.6-1.2-2.6-3.1c0-1.2,0.1-2.3,0-3.5c-0.3-2.3,1-3.8,2.7-5.1
		c0.1,0.1,0.3,0.2,0.4,0.3c2.2,3.2,4.5,6.4,6.6,9.7c0.7,1.1,0.5,1.5-0.8,1.8c-0.3,0.1-0.5,0.3-0.7,0.5c0.2,0.2,0.5,0.6,0.7,0.6
		c3,0,5.9,0,9.2,0c-0.3-0.5-0.5-1.1-0.7-1.1c-1.7-0.2-2.7-1.2-3.6-2.5c-2.7-3.9-5.3-7.8-8-11.6c-0.4-0.6-0.2-0.9,0.2-1.3
		c2-2.2,4.1-4.4,6.1-6.6c1-1,2.1-1.8,3.5-2.1c0.3-0.1,0.6-0.5,0.9-0.8c-0.4-0.2-0.7-0.4-1.1-0.5c-2.4,0-4.7,0-7.1,0
		c-0.3,0-0.7,0.3-1,0.5c0.3,0.2,0.6,0.5,0.9,0.6c1.6,0.3,2,1.2,1.1,2.6c-0.2,0.4-0.6,0.8-0.9,1.1c-1.1,1.2-2.1,2.3-3.2,3.4
		C327.9,483.3,326.2,485,324.3,487z M521.8,473.1C521.8,473.2,521.8,473.2,521.8,473.1c-1.8,0.1-3.6,0.1-5.4,0.1
		c-0.4,0-0.8,0.3-1.2,0.5c0.4,0.3,0.7,0.9,1.1,0.9c1.8,0.1,2.4,1.1,2.4,2.8c0,6,0,12.1,0,18.1c0,2.2-0.5,2.6-2.6,3
		c-0.3,0.1-0.5,0.4-0.8,0.6c0.3,0.2,0.6,0.5,0.9,0.5c2.1,0,4.2,0.1,6.2,0c2.6-0.1,5.2-0.2,7.7-0.8c4.1-0.9,6.9-3.5,8-7.7
		c0.8-3,0.9-6.1,0.1-9.1c-1.2-5-4.6-8-9.7-8.6C526.4,473.2,524.1,473.2,521.8,473.1z M384.8,473.4c-0.3-0.1-0.3-0.2-0.4-0.2
		c-5.8,0-11.7,0-17.5,0c-0.2,0-0.5,0.3-0.7,0.5c0.2,0.2,0.5,0.5,0.7,0.6c2,0.5,2.8,1.4,2.8,3.3c0,6,0,12.1,0,18.1
		c0,1.6-0.7,2.4-2.3,2.8c-0.4,0.1-0.7,0.4-1,0.6c0.4,0.2,0.8,0.5,1.1,0.5c5,0,10.1,0,15.1,0c2.7,0,2.7,0,3.1-2.7
		c0.2-1.5,0.4-2.9,0.5-4.4c0-0.3-0.3-0.6-0.4-0.8c-0.2,0.2-0.5,0.4-0.6,0.6c-0.3,0.5-0.4,1.1-0.6,1.7c-0.7,2-2,3.5-4.2,3.8
		c-1.7,0.2-3.4,0.3-5.1,0.2c-1.2,0-2-0.8-2-2c-0.1-2.7,0-5.4,0-8.2c0-0.8,0.4-1.3,1.2-1.4c3.2-0.1,4.7,0.1,5.3,3.5
		c0.1,0.3,0.5,0.6,0.7,0.9c0.2-0.4,0.6-0.7,0.6-1.1c0.1-2,0-3.9,0-5.9c0-1,0-2,0-3c-1-0.4-1.3,0-1.4,0.8c-0.6,2.6-1.5,3.2-4.1,3.2
		c-0.3,0-0.6,0-0.8,0c-1.2,0.1-1.6-0.5-1.6-1.5c0-2.2,0-4.4,0-6.6c0-1.5,0.6-2.2,2.2-2.3c1.2-0.1,2.4-0.1,3.6,0
		c2.4,0.1,3.9,1.4,4.7,3.8c0.2,0.7,0.4,1.4,0.5,2c0.1,0,0.2,0.1,0.3,0.1c0.2-0.3,0.6-0.6,0.6-0.9C385,477.7,384.9,475.5,384.8,473.4
		z M496.2,480.4c0.1,0.1,0.3,0.2,0.4,0.2c0.2-0.3,0.6-0.7,0.5-1c0-1.8-0.2-3.7-0.2-5.5c0-0.8-0.4-0.9-1-0.9c-1.7,0-3.4,0-5,0
		c-3.9,0-7.8,0-11.6,0c-0.3,0-0.7,0.3-1,0.5c0.3,0.2,0.5,0.5,0.8,0.6c1.9,0.5,2.6,1.4,2.6,3.6c0,5.8,0,11.7,0,17.5
		c0,2.1-0.6,2.7-2.5,3.2c-0.3,0.1-0.6,0.4-0.9,0.7c0.1,0.1,0.2,0.3,0.2,0.4c0.4,0,0.9,0,1.3,0c5.4,0,10.8,0,16.2,0
		c1.2,0,1.7-0.3,1.6-1.5c0-0.4,0.1-0.7,0.1-1.1c0.2-1.4,0.4-2.9,0.5-4.3c0-0.3-0.2-0.7-0.3-1c-0.3,0.3-0.6,0.5-0.8,0.8
		c-0.3,0.6-0.5,1.2-0.7,1.8c-0.7,1.9-2.1,3.2-4.1,3.5c-1.7,0.2-3.4,0.3-5.1,0.2c-1.2,0-2-0.9-2-2.1c-0.1-2.7,0-5.4,0-8
		c0-0.8,0.5-1.4,1.3-1.4c3-0.1,4.7,0,5.2,3.6c0,0.1,0,0.2,0,0.2c0.2,0.2,0.5,0.5,0.6,0.5c0.3-0.1,0.6-0.4,0.6-0.6c0-2.9,0-5.8,0-8.8
		c0-0.2-0.3-0.6-0.5-0.6c-0.3,0-0.6,0.2-0.8,0.5c-0.2,0.3-0.2,0.8-0.3,1.2c-0.4,1.7-1.4,2.5-3.2,2.5c-0.5,0-1,0-1.6,0
		c-1.2,0.1-1.6-0.4-1.6-1.5c0-2.2,0-4.4,0-6.6c0-1.5,0.6-2.2,2.2-2.3c1.2-0.1,2.5-0.1,3.7,0c2.4,0.2,3.9,1.4,4.6,3.7
		C495.9,479.1,496.1,479.8,496.2,480.4z M361,480.5c0.8,0.1,1-0.3,1-1c-0.1-1.8-0.2-3.6-0.2-5.4c0-0.6-0.2-0.9-0.9-0.9
		c-5.6,0-11.3,0-16.9,0c-0.3,0-0.6,0.3-0.9,0.5c0.3,0.2,0.5,0.5,0.8,0.6c1.8,0.5,2.7,1.4,2.7,3.3c0,6,0,12.1,0,18.1
		c0,1.6-0.7,2.4-2.3,2.8c-0.4,0.1-0.7,0.4-1,0.6c0.4,0.2,0.8,0.5,1.2,0.5c5.1,0,10.2,0,15.2,0c2.5,0,2.5,0,2.8-2.4
		c0.2-1.5,0.4-3.1,0.6-4.6c0-0.3-0.3-0.6-0.4-0.8c-0.2,0.2-0.5,0.4-0.6,0.6c-0.3,0.7-0.5,1.3-0.8,2c-0.7,1.9-2.1,3.2-4.2,3.5
		c-1.7,0.2-3.3,0.3-5,0.2c-1.2,0-2-0.9-2-2.1c-0.1-2.7,0-5.4,0-8c0-0.8,0.4-1.3,1.2-1.4c3.2-0.2,4.8,0.1,5.3,3.5
		c0,0.1,0,0.3,0.1,0.3c0.2,0.2,0.5,0.5,0.6,0.5c0.3-0.1,0.6-0.4,0.6-0.6c0-2.9,0-5.8,0-8.8c0-0.2-0.3-0.6-0.5-0.6
		c-0.3,0-0.6,0.2-0.8,0.5c-0.2,0.3-0.2,0.8-0.3,1.2c-0.4,1.6-1.4,2.4-3.1,2.5c-0.5,0-1,0-1.6,0c-1.5,0-1.6-0.2-1.7-1.7
		c0-2.2,0-4.3,0-6.5c0-1.5,0.7-2.2,2.2-2.2c1.2,0,2.4-0.1,3.6,0c2.4,0.1,3.9,1.3,4.6,3.7C360.7,479.1,360.8,479.8,361,480.5z
		 M376.7,454.8c0-0.6,0-1,0-1.5c0.2-3,0.1-2.4-2.3-3.1c-0.1,0-0.2,0-0.2-0.1c-7.8-2.4-14.2-6.6-18.5-13.8c-0.2-0.4-0.8-0.6-1.1-0.8
		c-0.2,0.5-0.6,0.9-0.6,1.4c-0.1,5.5-0.1,11,0,16.6c0,1-0.3,1.3-1.3,1.3c-2.6,0-5.2,0-7.8,0c-1.1,0-1.6,0.3-1.6,1.5
		c0.1,1.5,0.2,1.6,1.5,1.6c13.7,0,27.4,0,41,0c1.4,0,1.6-0.1,1.6-1.6c0-1.4-0.1-1.5-1.6-1.5C382.8,454.8,379.9,454.8,376.7,454.8z
		 M430.5,472.2c-0.3,0.6-0.4,0.8-0.5,1c-2.8,7.5-5.5,14.9-8.3,22.4c-0.5,1.3-1.1,2.5-2.5,3c-0.2,0.1-0.3,0.5-0.5,0.7
		c0.3,0.2,0.6,0.4,0.8,0.4c2,0,4,0,6,0c0.4,0,0.7-0.3,1.1-0.4c-0.3-0.2-0.6-0.6-1-0.7c-1.8-0.4-2.4-1.2-1.9-3
		c0.4-1.4,0.8-2.9,1.2-4.3c0.2-0.8,0.7-1.2,1.6-1.2c2,0,3.9,0,5.9,0c0.9,0,1.6,0.4,1.9,1.3c0.6,1.7,1.1,3.4,1.7,5.1
		c0.3,1-0.1,1.4-1,1.7c-0.3,0.1-0.7,0.1-1,0.3c-0.3,0.2-0.6,0.5-0.9,0.8c0.3,0.2,0.7,0.5,1,0.5c2.5,0,5,0,7.6,0
		c0.4,0,0.8-0.3,1.2-0.5c-0.3-0.3-0.6-0.9-1-0.9c-1.2-0.2-1.7-1-2.1-2.1c-2.6-7.5-5.3-15-8-22.4C431.5,473.3,431,472.9,430.5,472.2z
		 M304.3,472.5c-0.1,0.1-0.3,0.1-0.4,0.2c-0.1,0.2-0.2,0.4-0.3,0.6c-2.7,7.4-5.5,14.8-8.2,22.3c-0.5,1.3-1.1,2.4-2.4,2.9
		c-0.3,0.1-0.4,0.5-0.6,0.7c0.3,0.1,0.6,0.4,0.8,0.4c2,0,4.1,0,6.1,0c0.3,0,0.6-0.3,1-0.5c-0.3-0.2-0.6-0.5-0.9-0.6
		c-1.9-0.4-2.4-1.2-2-3.1c0.3-1.4,0.8-2.8,1.1-4.2c0.2-0.8,0.8-1.3,1.7-1.3c1.9,0,3.8,0,5.8,0c1,0,1.7,0.5,2,1.6
		c0.3,1.2,0.7,2.3,1.1,3.4c0.8,2.6,0.8,2.6-1.9,3.4c-0.2,0.1-0.5,0.4-0.6,0.7c0,0.1,0.4,0.5,0.6,0.5c3,0,6,0,8.9,0
		c0.4-0.9,0-1.3-0.7-1.4c-1.3-0.2-1.9-1-2.3-2.2c-2.6-7.5-5.3-14.9-8-22.4C305.1,473.3,304.6,472.9,304.3,472.5z M360.3,514.5
		c0,0.1,0,0.2,0,0.2c1.4,6.1,2.7,12.2,4.1,18.4c0.2,0.9,0.8,0.7,1.4,0.8c0.6,0,1.1,0,1.3-0.9c0.7-3.2,1.5-6.4,2.3-9.7
		c0.4-1.8,0.8-3.7,1.2-5.5c0.3,0.2,0.3,0.4,0.4,0.6c1,4.8,2,9.6,2.9,14.4c0.2,0.8,0.5,1.1,1.3,1.1c0.9,0,1.3-0.3,1.5-1.2
		c0.7-3,1.5-6,2.2-9c0.8-3.1,1.5-6.2,2.3-9.3c-2-0.3-2.1-0.3-2.5,1.5c-0.8,3.7-1.7,7.4-2.5,11.1c-0.3,1.1-0.5,2.2-0.7,3.4
		c-0.4-0.6-0.5-1.1-0.6-1.7c-0.9-4.5-1.9-9.1-2.8-13.6c-0.2-0.9-0.6-0.9-1.3-0.9c-0.7,0-1.2,0-1.4,0.9c-1,4.8-2.1,9.5-3.2,14.3
		c-0.1,0.3-0.2,0.6-0.5,1.1c-1-5-2-9.7-2.9-14.4C362.4,514.2,362.3,514.1,360.3,514.5z M325.6,517.7c0.2,0.1,0.3,0.1,0.3,0.2
		c2.6,4.9,5.2,9.8,7.8,14.7c0.8,1.5,1.1,1.6,2.8,1.1c0-6.4,0-12.8,0-19.2c-0.6,0-1.2,0-1.9,0c0,5.2,0,10.4,0,15.6
		c-2.6-4.8-5.3-9.5-7.9-14.3c-0.9-1.6-1.2-1.7-3-1.2c0,6.4,0,12.8,0,19.2c0.7,0,1.2,0,1.8,0C325.6,528.4,325.6,523,325.6,517.7z
		 M506.5,473.2c-1.5,0-3,0-4.4,0c-0.2,0-0.5,0.3-0.7,0.5c0.2,0.2,0.3,0.5,0.5,0.6c2.4,0.8,2.9,1.4,2.9,3.9c0,5.8,0,11.5,0,17.3
		c0,1.9-0.7,2.7-2.5,3.1c-0.3,0.1-0.6,0.4-0.8,0.6c0.3,0.2,0.6,0.5,1,0.5c2.7,0,5.4,0,8.1,0c0.4,0,0.8-0.3,1.2-0.5
		c-0.3-0.2-0.6-0.6-1-0.6c-1.6-0.3-2.4-1.2-2.4-2.8c0-6,0-12.1,0-18.1c0-2,0.7-2.8,2.6-3.4c0.3-0.1,0.4-0.4,0.7-0.6
		c-0.3-0.2-0.5-0.5-0.8-0.5C509.4,473.2,508,473.2,506.5,473.2z M427.6,524.1c-0.4-1.7-0.6-3.5-1.1-5.1c-1-2.8-3-4.6-6.1-4.9
		c-2.7-0.2-4.8,0.9-6.4,3c-2.7,3.6-2.8,10.2-0.2,14c3.1,4.5,9.4,4.2,12.1-0.6C426.9,528.5,427.3,526.3,427.6,524.1z M442.1,524.5
		c0.4-0.2,0.6-0.3,0.8-0.5c1.8-1.1,2.7-3.2,2.3-5.5c-0.4-2.2-1.6-3.6-4-3.9c-1.8-0.2-3.6,0-5.4,0c-0.9,0-1.2,0.4-1.2,1.3
		c0,5.6,0,11.1,0,16.7c0,0.4,0,0.8,0,1.1c0.8,0,1.4,0,2.1,0c0-0.5,0-1,0-1.4c0-2,0-3.9,0-5.9c0-0.4,0.2-0.9,0.5-1
		c2.3-0.7,4.4,0.5,5,2.9c0.3,1.3,0.5,2.6,0.8,3.9c0.4,1.7,0.6,1.8,2.6,1.4C444.4,530.7,445.3,526.9,442.1,524.5z M452.5,514.4
		c0,6.5,0,12.9,0,19.3c0.7,0,1.3,0,2,0c0-2,0.1-4,0-5.9c-0.1-1.5,0.7-2.4,1.7-3.5c0.3,0.4,0.5,0.6,0.7,0.9c1.4,2.4,2.8,4.8,4.3,7.2
		c0.9,1.5,1.2,1.7,3.2,1.2c-0.2-0.3-0.3-0.6-0.5-0.8c-1.7-2.8-3.4-5.6-5-8.4c-1.1-1.8-1.1-1.8,0.2-3.4c1.6-2.1,3.2-4.2,4.9-6.5
		c-1.5-0.2-2.7-0.3-3.5,1.2c-1.1,1.8-2.4,3.5-3.7,5.2c-0.6,0.9-1.2,1.7-1.8,2.6c-0.1,0-0.2,0-0.3-0.1c0-3,0-5.9,0-8.9
		C453.8,514.4,453.2,514.4,452.5,514.4z M344.9,514.4c0,6.5,0,12.9,0,19.3c3.2,0,6.3,0,9.4,0c0.2-1.9,0.2-1.9-1.5-1.9
		c-1.6,0-3.2,0-4.8,0c-0.7,0-1.1-0.2-1.1-1c0-1.7,0-3.4,0-5.2c0-0.7,0.3-1,1-1c1.4,0,2.8,0,4.2,0c1.6,0,1.8-0.3,1.3-2
		c-0.9,0-1.8,0-2.7,0c-0.9,0-1.8,0-2.8,0c-0.7,0-1-0.2-1-1c0-1.5,0-3,0-4.6c0-0.7,0.3-1,1-1c1.5,0,3,0,4.6,0c1.6,0,1.7-0.1,1.4-1.9
		C350.9,514.4,348,514.4,344.9,514.4z M402,533.8c0-2.4,0-4.8,0-7.1c0-0.8,0.2-1.7,0.6-2.4c1.5-3,3-5.9,4.5-8.8
		c0.2-0.3,0.3-0.7,0.5-1.1c-2.2-0.2-2.2-0.2-3,1.5c-0.9,2-1.9,4.1-2.8,6.1c-0.2,0.5-0.5,1-0.8,1.8c-1.3-2.8-2.4-5.4-3.5-7.9
		c-0.8-1.8-0.9-1.8-2.9-1.3c0.1,0.2,0.2,0.4,0.3,0.7c1.1,2.4,2.2,4.8,3.5,7.1c1.2,2.1,1.8,4.3,1.6,6.7c-0.1,1.6,0,3.2,0,4.8
		C400.6,533.8,401.2,533.8,402,533.8z M403.1,463.6c0-0.1,0-0.3,0-0.4c-7.4,0-14.7,0-22.1,0c0,0.1,0,0.3,0,0.4
		C388.3,463.6,395.7,463.6,403.1,463.6z"/>
	<path d="M246,491.1c0.8-0.1,1.1,0.2,1.3,1.1c0.5,3.1,2.2,5.4,5.2,6.5c2.7,1,5.8-0.5,6.8-3.1c0.9-2.5-0.4-5.2-3.1-6.3
		c-1.8-0.8-3.7-1.4-5.5-2.3c-4.6-2.3-5.8-8.2-2.6-12.1c1.9-2.3,5-3.1,7.5-1.7c1.3,0.7,2.4,1.1,3.6,0c0.1-0.1,0.3-0.2,0.7-0.4
		c0.2,1.2,0.5,2.3,0.6,3.5c0.2,1.3,0.2,2.5,0.2,3.8c0,0.3-0.3,0.6-0.4,1c-0.3-0.3-0.6-0.5-0.8-0.8c-0.7-1.4-1.3-2.9-2.2-4.2
		c-1.2-1.7-3-2.2-5-2c-1.7,0.2-2.9,1.1-3.4,2.8c-0.5,1.7-0.4,3.4,1.1,4.4c2,1.3,4.3,2.4,6.5,3.4c1.8,0.9,3.5,1.8,4.5,3.7
		c2,4,0.3,9.7-3.4,11.4c-2.5,1.1-5,0.9-7.4-0.4c-0.7-0.4-1.1-0.5-1.8,0c-0.5,0.4-1.1,0.6-1.7,1c-0.3-2.2-0.6-4.2-0.9-6.3
		C246,493.2,246,492.1,246,491.1z"/>
	<path d="M405.6,454.6c-0.8-1.3-1.4-2.4-1.9-3.2c-2.5,0.6-4.7,1.3-7,1.7c-4.2,0.7-8.4,0.6-12.7,0.2c-1.1-0.1-1.7-0.4-1.3-1.6
		c-1.4-0.4-2.8-0.7-4.1-1.2c-4.8-1.7-7.8-5.1-8.2-10.2c-0.3-3.2,0.1-6.5,0.2-9.8c0.1-2.7,0.6-5.3-0.2-8c-1.3-4.4-5.3-7.3-9.7-7
		c-1.9,0.1-3.5,1-5,2.1c-0.4,0.3-0.9,0.3-1.4,0.5c-0.1-0.5-0.4-0.9-0.4-1.4c0-8.5,0-17,0-25.4c0-0.5,0.3-1,0.5-1.4
		c0.4,0.3,1,0.5,1.3,0.9c2.9,4.6,6.8,8,11.4,10.6c12.1,7,24.3,13.8,36.4,20.8c2,1.1,3.8,2.5,5.5,4.1c5.2,5,5.4,11.4,0.7,16.8
		c-1.4,1.5-3.1,2.8-4.7,4.1c-0.4,0.3-0.8,0.6-1.1,1.1c0.8-0.4,1.7-0.7,2.5-1.2c5.8-3,10.6-7.1,13.2-13.2c4-9.4,1.8-17.6-4.8-25
		c-2.7-3-6.1-5.2-9.7-7.2c-11.6-6.6-23.1-13.2-34.6-19.9c-2.2-1.3-4.3-2.9-6.1-4.7c-4.5-4.6-4.7-10.6-0.6-15.6
		c1-1.2,2.2-2.4,3.4-3.4c1.2-1,2.6-1.8,3.9-2.8c-0.7,0.3-1.4,0.6-2.1,0.9c-5.5,2.7-10.1,6.4-13.4,11.6c-0.2,0.3-0.7,0.5-1.1,0.7
		c-0.2-0.4-0.6-0.8-0.6-1.2c0-4.5-0.1-8.9,0-13.4c0-0.8-0.4-0.8-0.9-0.9c-2.7,0-5.4-0.1-8.2-0.1c-1.4,0-1.5-0.2-1.6-1.6
		c-0.1-1.2,0.4-1.5,1.5-1.5c17.3,0,34.6,0.1,51.8,0c15.9,0,26.5,9.4,30.8,20.5c4.9,12.7,2.7,24.2-6.3,34.5c-0.5,0.5-1.1,1-1.6,1.5
		c-1.1,1-1.1,1.6,0,2.6c3.1,3.1,5,6.9,6,11.1c1.2,5.3,0.6,10.3-1.9,15.1c-0.9,1.7-2.1,3.2-3.2,4.7c-0.2,0.3-0.3,0.8-0.2,1
		c0.5,1,1.1,1.9,1.7,2.8c2.2,3.4,4.3,6.9,6.6,10.3c0.2,0.4,0.9,0.7,1.3,0.7c3.1,0,6.2,0.1,9.2,0c1.2,0,1.5,0.5,1.5,1.6
		c0,1.1-0.3,1.6-1.5,1.6c-13.7,0-27.4,0-41.2,0c-1.2,0-1.5-0.4-1.5-1.6c0-1.1,0.2-1.6,1.5-1.6c2.2,0.1,4.4,0,6.6,0
		C404.8,454.8,405.1,454.7,405.6,454.6z M407.9,456.2c6.6,0,13.2,0,19.8,0c-0.9-1.3-1.7-2.5-2.5-3.8c-2-3.5-4-7.1-6.1-10.6
		c-0.6-1-0.6-1.6,0.1-2.5c7.4-9.5,6.5-22-2-30.5c-1-1.1-1-1.4,0.1-2.4c8.6-7.9,12.3-17.7,10.4-29.3c-2.1-12.8-12.2-23.2-26.9-25.2
		c-0.3,0-0.7,0-1,0c0.5,0.4,0.9,0.6,1.4,0.7c0.5,0.2,1,0.3,1.5,0.5c10,3.8,17.1,10.3,19.8,20.9c1,3.9,0.8,7.8-1.4,11.3
		c-2.2,3.6-6.2,5.4-10.2,4.8c-4.6-0.7-7.7-3.1-8.8-7.8c-0.7-3.1-0.5-6.2-0.3-9.3c0.2-3,0.4-6,0.2-9c-0.4-5.1-3.3-8.4-8.3-9.5
		c-5.7-1.4-11.4-1-16.9,0.6c-4.6,1.3-8.7,3.5-11.8,7.4c-3.3,4.2-3.3,8.9,0.1,13c1.1,1.3,2.4,2.6,3.9,3.5c4.8,2.9,9.7,5.6,14.6,8.5
		c8.9,5.2,17.7,10.3,26.5,15.5c2.3,1.4,4.4,3.1,6.2,5.1c6.9,7.6,8.9,16.4,4.8,26.1c-2.9,6.9-8.2,11.6-14.9,14.8
		c-0.5,0.3-1,0.5-1.5,0.8C405.6,452.1,407.5,453.7,407.9,456.2z M355.6,393.5c0,7.5,0,14.8,0,22.2c0.6-0.3,1.1-0.5,1.5-0.8
		c5.9-2.8,12.7-0.1,14.7,6c0.6,1.8,0.7,3.8,0.7,5.7c-0.1,3.6-0.6,7.3-0.7,10.9c-0.1,3,0.5,5.9,2.5,8.3c0.3,0.3,0.6,0.6,0.9,0.9
		c-0.1-1.5-0.2-2.9-0.2-4.3c0-2.3,0.2-4.6,0.2-6.8c0-5.4,0-10.8,0-16.2c0-1.3,0.3-1.6,1.6-1.5c6.3,0.5,11.1,3.1,14.3,8.9
		c3.4,6.5,7.5,12.7,11.2,19c0.3,0.5,0.6,0.8,1.2,0.4c2.5-1.6,4.8-3.3,6.4-5.9c2.3-3.6,2.3-7.3-0.1-10.9c-1.6-2.4-3.8-4.1-6.3-5.5
		c-12.3-7.1-24.6-14.1-36.9-21.2c-3.9-2.2-7.4-5-10.2-8.6C356.1,394.1,355.9,393.9,355.6,393.5z M402.3,448.9
		c-0.4-0.5-0.7-0.9-1-1.3c-3.1-5.2-6.2-10.4-9.4-15.6c-1.4-2.4-2.8-4.8-4.4-7c-2.6-3.6-6.4-5.1-10.9-5.5c0,1,0,1.9,0,2.8
		c0,7.3,0.1,14.5,0,21.8c-0.1,2.4,0.9,3.7,2.9,4.5c1.6,0.6,3.2,1.1,4.9,1.5c0.9,0.2,1.6,0.4,1.4,1.6
		C391.6,451.7,397,450.8,402.3,448.9z M394.1,352.5c0.1,0.3,0.1,0.4,0.1,0.4c0.2,0.1,0.4,0.2,0.7,0.2c4.5,1.4,7.6,4.2,8.5,9
		c0.4,2.2,0.4,4.5,0.4,6.7c-0.1,3.8-0.5,7.7-0.5,11.5c0,2.5,1.1,4.6,3.1,6.1c3,2.4,6.4,2.9,9.9,1.4c3.6-1.5,5.3-4.5,5.4-8.2
		c0.2-4.6-1.3-8.8-3.7-12.6c-4.8-7.9-12.2-12-20.9-13.9C396,352.7,395.1,352.6,394.1,352.5z M355.5,351.5c0,4.5,0,8.9,0,13.7
		c5.5-7.2,12.8-11.2,21-13.7C369.5,351.5,362.5,351.5,355.5,351.5z"/>
	<path d="M410.1,477.7c-1.2,3.4-2.3,6.9-3.5,10.3c-1.2,3.6-2.4,7.1-3.6,10.7c-0.1,0.4-0.6,0.7-0.8,1c-0.3-0.3-0.6-0.6-0.7-0.9
		c-2.4-6.5-4.8-13.1-7.2-19.6c-0.1-0.4-0.3-0.8-0.6-1.5c-0.1,0.6-0.2,0.8-0.2,1.1c0,5.4,0,10.8-0.1,16.2c0,2.4,0.6,3.1,2.9,3.7
		c0.3,0.1,0.5,0.5,0.7,0.8c-0.1,0.1-0.2,0.2-0.2,0.3c-2.6,0-5.2,0-7.8,0c-0.2,0-0.6-0.3-0.5-0.4c0-0.2,0.2-0.6,0.5-0.7
		c2.2-0.9,2.8-1.7,2.9-4c0.1-5.8,0.2-11.7,0.3-17.5c0-2.1-0.4-2.6-2.6-2.8c-0.3,0-0.6-0.4-1-0.5c0.3-0.2,0.6-0.5,1-0.5
		c1.8-0.1,3.6,0,5.4,0c0.8,0,1.1,0.3,1.3,1c2.1,6,4.3,12,6.4,18.1c0.1,0.2,0.2,0.5,0.5,1c0.4-1.1,0.8-2,1.1-2.9
		c1.8-5.4,3.7-10.8,5.5-16.2c0.2-0.6,0.5-1,1.3-1c1.8,0.1,3.6,0,5.4,0c0.3,0,0.6,0.3,0.9,0.5c-0.3,0.2-0.6,0.6-0.9,0.6
		c-1.9,0.2-2.5,0.9-2.5,2.8c0.1,6.1,0.2,12.2,0.4,18.3c0,1.8,0.7,2.6,2.5,3.1c0.3,0.1,0.5,0.4,0.7,0.6c-0.3,0.2-0.6,0.5-0.9,0.5
		c-2.8,0-5.5,0-8.3,0c-0.3,0-0.6-0.3-0.9-0.5c0.2-0.2,0.4-0.5,0.7-0.6c1.8-0.5,2.5-1.3,2.5-3c-0.1-5.8-0.1-11.6-0.2-17.4
		c0-0.1-0.1-0.3-0.1-0.4C410.3,477.7,410.2,477.7,410.1,477.7z"/>
	<path d="M270.4,499.7c-1.4,0-2.9,0-4.3,0c-0.3,0-0.7-0.3-1-0.5c0.3-0.2,0.5-0.5,0.8-0.6c2.1-0.4,2.8-1.2,2.8-3.3c0-5.7,0-11.4,0-17
		c0-2.5-0.6-3.2-3-3.9c-0.2-0.1-0.4-0.4-0.6-0.5c0.2-0.2,0.5-0.5,0.7-0.5c3,0,5.9,0,8.9,0c0.3,0,0.5,0.3,0.8,0.5
		c-0.2,0.2-0.4,0.5-0.7,0.6c-1.8,0.5-2.6,1.3-2.6,3.1c-0.1,2.2-0.1,4.4,0,6.6c0,0.3,0.3,0.7,0.6,0.8c0.5,0.2,1.1,0.3,1.6,0.3
		c2.5,0,5,0,7.4,0c1.9,0,2.1-0.2,2.1-2c0-1.7,0-3.4,0-5.2c0-2.2-0.7-3.1-2.9-3.6c-0.3-0.1-0.5-0.4-0.7-0.6c0.3-0.2,0.5-0.5,0.8-0.5
		c2.9,0,5.8,0,8.8,0c0.2,0,0.5,0.3,0.7,0.5c-0.2,0.2-0.4,0.5-0.6,0.5c-2,0.6-2.6,1.3-2.6,3.5c0,6,0,11.9,0,17.9
		c0,1.8,0.6,2.5,2.4,2.9c0.3,0.1,0.5,0.4,0.8,0.6c-0.3,0.2-0.6,0.5-0.9,0.5c-2.8,0-5.7,0-8.5,0c-0.3,0-0.6-0.3-0.9-0.5
		c0.3-0.2,0.5-0.5,0.8-0.6c2-0.4,2.7-1.2,2.7-3.3c0-2.4,0-4.7,0-7.1c0-1-0.4-1.4-1.3-1.5c-1.2-0.1-2.5-0.1-3.7-0.1
		c-1.6,0-3.2,0-4.8,0c-1.7,0.1-2,0.4-2,2.2c0,2.2,0,4.4,0,6.6c0,2,0.6,2.7,2.5,3.2c0.3,0.1,0.5,0.4,0.8,0.6
		c-0.3,0.2-0.6,0.5-0.9,0.5C273.2,499.7,271.8,499.7,270.4,499.7z"/>
	<path d="M467.9,486.1c0.2,0.2,0.3,0.4,0.5,0.5c2.2,1.5,3.6,3.5,4.1,6.1c0.2,1.2,0.6,2.3,1.1,3.4c0.3,0.7,1,1.4,1.7,1.6
		c0.3,0.1,1-0.8,1.8-1.5c0.1,0.3,0.3,0.7,0.2,1.1c-0.3,1.4-1.6,2.6-2.7,2.8c-2,0.2-3.8-0.5-4.4-2.1c-0.7-1.7-1-3.6-1.6-5.4
		c-0.4-1.2-0.8-2.5-1.4-3.7c-1-2-2.1-2.6-4.3-2.2c-0.4,0.1-0.9,0.6-0.9,0.9c-0.1,2.8-0.1,5.7,0,8.5c0,1.4,0.8,2.1,2.3,2.4
		c0.3,0.1,0.6,0.4,0.9,0.6c-0.3,0.2-0.7,0.5-1,0.5c-2.7,0-5.4,0-8,0c-0.3,0-0.6-0.3-1-0.5c0.3-0.2,0.5-0.5,0.8-0.6
		c1.7-0.4,2.3-1.1,2.3-2.9c0-6.1,0-12.2,0-18.3c0-2-0.6-2.6-2.5-3c-0.3-0.1-0.5-0.4-0.8-0.6c0.3-0.2,0.6-0.5,0.9-0.5
		c3.8,0,7.7-0.1,11.5,0c4.2,0.1,7.1,3.5,6.6,7.3c-0.3,2.5-2,3.9-4.2,4.8C469.2,485.6,468.6,485.8,467.9,486.1z M464.7,474.7
		c-2.7,0-2.8,0.2-2.9,2.8c0,2.1,0,4.2,0,6.3c0,0.7,0.1,1.3,1,1.3c1.3,0,2.6,0,3.9-0.2c1.4-0.2,2.4-1,3-2.3c0.7-1.6,0.7-3.4,0.1-5
		C468.9,475.2,466.9,474.6,464.7,474.7z"/>
	<path d="M324.3,487c1.9-2,3.6-3.8,5.2-5.5c1.1-1.1,2.1-2.3,3.2-3.4c0.3-0.4,0.6-0.7,0.9-1.1c0.8-1.4,0.4-2.3-1.1-2.6
		c-0.3-0.1-0.6-0.4-0.9-0.6c0.3-0.2,0.7-0.5,1-0.5c2.4,0,4.7,0,7.1,0c0.4,0,0.7,0.3,1.1,0.5c-0.3,0.3-0.5,0.7-0.9,0.8
		c-1.5,0.2-2.6,1-3.5,2.1c-2,2.2-4.1,4.4-6.1,6.6c-0.4,0.4-0.6,0.7-0.2,1.3c2.7,3.9,5.3,7.8,8,11.6c0.9,1.3,1.9,2.3,3.6,2.5
		c0.2,0,0.4,0.5,0.7,1.1c-3.3,0-6.3,0-9.2,0c-0.2,0-0.5-0.4-0.7-0.6c0.2-0.2,0.5-0.5,0.7-0.5c1.3-0.3,1.6-0.7,0.8-1.8
		c-2.2-3.3-4.4-6.5-6.6-9.7c-0.1-0.1-0.2-0.2-0.4-0.3c-1.7,1.3-3,2.8-2.7,5.1c0.1,1.1,0,2.3,0,3.5c0,2,0.7,2.7,2.6,3.1
		c0.3,0.1,0.6,0.4,1,0.6c-0.4,0.2-0.7,0.5-1.1,0.5c-2.8,0-5.5,0-8.3,0c-0.3,0-0.6-0.3-1-0.5c0.3-0.2,0.5-0.5,0.8-0.6
		c1.8-0.4,2.5-1.2,2.5-3.1c0-6,0-11.9,0-17.9c0-2-0.7-2.8-2.7-3.2c-0.3-0.1-0.6-0.4-0.8-0.6c0.3-0.2,0.7-0.5,1-0.5
		c2.7,0,5.4,0,8.2,0c0.7,0,1.1,0.1,0.9,0.9c-2.8,0.8-3.1,1.2-3.1,4.1c0,2.4,0,4.9,0,7.3C324.3,486,324.3,486.3,324.3,487z"/>
	<path d="M521.8,473.1c2.3,0.1,4.5,0.1,6.8,0.3c5.1,0.6,8.4,3.6,9.7,8.6c0.8,3,0.7,6.1-0.1,9.1c-1.1,4.2-3.9,6.8-8,7.7
		c-2.5,0.6-5.1,0.6-7.7,0.8c-2.1,0.1-4.2,0-6.2,0c-0.3,0-0.6-0.3-0.9-0.5c0.3-0.2,0.5-0.5,0.8-0.6c2.1-0.4,2.5-0.8,2.6-3
		c0-6,0-12.1,0-18.1c0-1.7-0.5-2.7-2.4-2.8c-0.4,0-0.7-0.6-1.1-0.9c0.4-0.2,0.8-0.5,1.2-0.5C518.2,473.2,520,473.2,521.8,473.1
		C521.8,473.2,521.8,473.2,521.8,473.1z M522.2,486.2C522.2,486.2,522.2,486.2,522.2,486.2c0.1,3.3,0,6.6,0.1,9.9c0,1.4,0.7,2,2.1,2
		c0.8,0,1.7,0,2.5,0c3.3,0,5.9-1.9,6.9-5c1.1-3.5,1.1-7,0.6-10.6c-0.3-2-0.9-4-2.4-5.5c-2-2-4.4-2.5-7.1-2.4
		c-2.5,0.1-2.7,0.3-2.7,2.8C522.2,480.4,522.2,483.3,522.2,486.2z"/>
	<path d="M384.8,473.4c0.1,2.1,0.2,4.2,0.2,6.3c0,0.3-0.4,0.6-0.6,0.9c-0.1,0-0.2-0.1-0.3-0.1c-0.2-0.7-0.3-1.4-0.5-2
		c-0.7-2.4-2.2-3.6-4.7-3.8c-1.2-0.1-2.4-0.1-3.6,0c-1.5,0.1-2.2,0.7-2.2,2.3c0,2.2,0,4.4,0,6.6c0,1.1,0.4,1.7,1.6,1.5
		c0.3,0,0.6,0,0.8,0c2.6,0,3.5-0.7,4.1-3.2c0.2-0.8,0.4-1.2,1.4-0.8c0,0.9,0,2,0,3c0,2,0,3.9,0,5.9c0,0.4-0.4,0.7-0.6,1.1
		c-0.2-0.3-0.7-0.6-0.7-0.9c-0.6-3.4-2.1-3.6-5.3-3.5c-0.8,0-1.2,0.6-1.2,1.4c0,2.7,0,5.4,0,8.2c0,1.1,0.8,2,2,2
		c1.7,0,3.4,0,5.1-0.2c2.2-0.3,3.5-1.8,4.2-3.8c0.2-0.6,0.4-1.1,0.6-1.7c0.1-0.2,0.4-0.4,0.6-0.6c0.2,0.3,0.5,0.6,0.4,0.8
		c-0.1,1.5-0.3,2.9-0.5,4.4c-0.4,2.7-0.4,2.7-3.1,2.7c-5,0-10.1,0-15.1,0c-0.4,0-0.8-0.3-1.1-0.5c0.3-0.2,0.6-0.6,1-0.6
		c1.6-0.4,2.3-1.1,2.3-2.8c0-6,0-12.1,0-18.1c0-2-0.8-2.8-2.8-3.3c-0.3-0.1-0.5-0.4-0.7-0.6c0.2-0.2,0.5-0.5,0.7-0.5
		c5.8,0,11.7,0,17.5,0C384.4,473.3,384.5,473.3,384.8,473.4z"/>
	<path d="M496.2,480.4c-0.2-0.7-0.3-1.3-0.5-2c-0.7-2.3-2.2-3.6-4.6-3.7c-1.2-0.1-2.5-0.1-3.7,0c-1.5,0.1-2.1,0.8-2.2,2.3
		c0,2.2,0,4.4,0,6.6c0,1.1,0.4,1.6,1.6,1.5c0.5-0.1,1,0,1.6,0c1.7-0.1,2.7-0.9,3.2-2.5c0.1-0.4,0.1-0.8,0.3-1.2
		c0.1-0.2,0.5-0.4,0.8-0.5c0.2,0,0.5,0.4,0.5,0.6c0,2.9,0,5.8,0,8.8c0,0.2-0.4,0.6-0.6,0.6c-0.2,0-0.4-0.3-0.6-0.5c0,0,0-0.2,0-0.2
		c-0.5-3.6-2.2-3.7-5.2-3.6c-0.9,0-1.3,0.5-1.3,1.4c0,2.7,0,5.4,0,8c0,1.2,0.8,2.1,2,2.1c1.7,0,3.4,0,5.1-0.2c2-0.3,3.3-1.6,4.1-3.5
		c0.2-0.6,0.4-1.2,0.7-1.8c0.2-0.3,0.5-0.6,0.8-0.8c0.1,0.3,0.3,0.7,0.3,1c-0.1,1.4-0.3,2.9-0.5,4.3c0,0.4-0.1,0.7-0.1,1.1
		c0.1,1.2-0.4,1.5-1.6,1.5c-5.4-0.1-10.8,0-16.2,0c-0.4,0-0.9,0-1.3,0c-0.1-0.1-0.2-0.3-0.2-0.4c0.3-0.2,0.6-0.6,0.9-0.7
		c2-0.4,2.5-1.1,2.5-3.2c0-5.8,0-11.7,0-17.5c0-2.1-0.7-3.1-2.6-3.6c-0.3-0.1-0.6-0.4-0.8-0.6c0.3-0.2,0.6-0.5,1-0.5
		c3.9,0,7.8,0,11.6,0c1.7,0,3.4,0,5,0c0.7,0,1,0.1,1,0.9c0,1.8,0.2,3.7,0.2,5.5c0,0.3-0.4,0.7-0.5,1
		C496.5,480.6,496.4,480.5,496.2,480.4z"/>
	<path d="M361,480.5c-0.2-0.7-0.3-1.4-0.5-2.1c-0.8-2.3-2.2-3.5-4.6-3.7c-1.2-0.1-2.4-0.1-3.6,0c-1.5,0.1-2.2,0.7-2.2,2.2
		c0,2.2,0,4.3,0,6.5c0,1.5,0.2,1.7,1.7,1.7c0.5,0,1,0,1.6,0c1.7-0.1,2.7-0.9,3.1-2.5c0.1-0.4,0.1-0.8,0.3-1.2
		c0.1-0.2,0.5-0.5,0.8-0.5c0.2,0,0.5,0.4,0.5,0.6c0,2.9,0,5.8,0,8.8c0,0.2-0.4,0.6-0.6,0.6c-0.2,0-0.4-0.3-0.6-0.5
		c-0.1-0.1,0-0.2-0.1-0.3c-0.5-3.3-2-3.6-5.3-3.5c-0.8,0-1.2,0.6-1.2,1.4c0,2.7,0,5.4,0,8c0,1.2,0.8,2.1,2,2.1c1.7,0,3.4,0,5-0.2
		c2.1-0.3,3.4-1.6,4.2-3.5c0.3-0.7,0.5-1.4,0.8-2c0.1-0.2,0.4-0.4,0.6-0.6c0.1,0.3,0.4,0.6,0.4,0.8c-0.1,1.6-0.3,3.1-0.6,4.6
		c-0.3,2.4-0.3,2.4-2.8,2.4c-5.1,0-10.2,0-15.2,0c-0.4,0-0.8-0.3-1.2-0.5c0.3-0.2,0.7-0.5,1-0.6c1.6-0.4,2.3-1.1,2.3-2.8
		c0-6,0-12.1,0-18.1c0-1.9-0.8-2.8-2.7-3.3c-0.3-0.1-0.6-0.4-0.8-0.6c0.3-0.2,0.6-0.5,0.9-0.5c5.6,0,11.3,0,16.9,0
		c0.7,0,0.9,0.3,0.9,0.9c0,1.8,0.1,3.6,0.2,5.4C362.1,480.3,361.9,480.6,361,480.5z"/>
	<path d="M376.7,454.8c3.2,0,6.1,0,9.1,0c1.5,0,1.6,0.1,1.6,1.5c0,1.4-0.1,1.6-1.6,1.6c-13.7,0-27.4,0-41,0c-1.4,0-1.5-0.2-1.5-1.6
		c-0.1-1.2,0.5-1.5,1.6-1.5c2.6,0.1,5.2,0,7.8,0c1,0,1.3-0.3,1.3-1.3c0-5.5,0-11,0-16.6c0-0.5,0.4-0.9,0.6-1.4
		c0.4,0.3,0.9,0.5,1.1,0.8c4.2,7.2,10.7,11.4,18.5,13.8c0.1,0,0.2,0,0.2,0.1c2.4,0.8,2.4,0.1,2.3,3.1
		C376.6,453.7,376.7,454.2,376.7,454.8z M355.5,439.7c0,5.4,0,11,0,16.5c6.6,0,13.1,0,19.6,0c0-1.2,0.1-2.4,0-3.5
		c0-0.4-0.5-0.9-0.8-1c-4.5-0.7-8.4-2.8-11.9-5.5C359.9,444.3,357.8,441.9,355.5,439.7z"/>
	<path d="M430.5,472.2c0.5,0.7,0.9,1.1,1.1,1.6c2.7,7.5,5.3,15,8,22.4c0.4,1,0.9,1.8,2.1,2.1c0.4,0.1,0.6,0.6,1,0.9
		c-0.4,0.2-0.8,0.4-1.2,0.5c-2.5,0-5,0-7.6,0c-0.3,0-0.7-0.3-1-0.5c0.3-0.3,0.6-0.6,0.9-0.8c0.3-0.2,0.7-0.2,1-0.3
		c0.9-0.2,1.3-0.7,1-1.7c-0.6-1.7-1.1-3.4-1.7-5.1c-0.3-0.9-1-1.2-1.9-1.3c-2,0-3.9,0-5.9,0c-0.8,0-1.3,0.4-1.6,1.2
		c-0.4,1.4-0.8,2.8-1.2,4.3c-0.4,1.8,0.1,2.6,1.9,3c0.4,0.1,0.7,0.4,1,0.7c-0.4,0.1-0.7,0.4-1.1,0.4c-2,0-4,0-6,0
		c-0.3,0-0.6-0.3-0.8-0.4c0.2-0.2,0.3-0.6,0.5-0.7c1.4-0.5,2.1-1.7,2.5-3c2.8-7.5,5.5-14.9,8.3-22.4
		C430.1,473,430.2,472.8,430.5,472.2z M429.9,478.4c-0.2,0.1-0.3,0.2-0.3,0.2c-1.1,2.9-2.2,5.8-3.3,8.7c-0.3,0.9,0.2,1.2,1,1.2
		c1.6,0,3.2,0,4.8,0c1,0,1.2-0.4,0.9-1.3C432,484.4,431,481.4,429.9,478.4z"/>
	<path d="M304.3,472.5c0.3,0.4,0.7,0.8,0.9,1.3c2.7,7.4,5.3,14.9,8,22.4c0.4,1.1,1,2,2.3,2.2c0.7,0.1,1.1,0.5,0.7,1.4
		c-2.9,0-5.9,0-8.9,0c-0.2,0-0.6-0.4-0.6-0.5c0.1-0.3,0.3-0.7,0.6-0.7c2.7-0.8,2.7-0.8,1.9-3.4c-0.4-1.1-0.8-2.3-1.1-3.4
		c-0.3-1-1-1.5-2-1.6c-1.9,0-3.8,0-5.8,0c-0.9,0-1.4,0.4-1.7,1.3c-0.4,1.4-0.8,2.8-1.1,4.2c-0.5,1.9,0.1,2.7,2,3.1
		c0.3,0.1,0.6,0.4,0.9,0.6c-0.3,0.2-0.6,0.5-1,0.5c-2,0-4.1,0-6.1,0c-0.3,0-0.6-0.3-0.8-0.4c0.2-0.3,0.3-0.7,0.6-0.7
		c1.4-0.5,2-1.7,2.4-2.9c2.7-7.4,5.5-14.8,8.2-22.3c0.1-0.2,0.2-0.4,0.3-0.6C304,472.6,304.2,472.5,304.3,472.5z M303.5,478.5
		c-0.1,0.1-0.3,0.1-0.3,0.1c-1.1,3-2.3,6-3.3,9c-0.3,0.7,0.3,1,0.9,1c1.7,0,3.4,0,5,0c0.8,0,1-0.4,0.8-1.1
		C305.6,484.5,304.6,481.5,303.5,478.5z"/>
	<path d="M360.3,514.5c2-0.4,2.1-0.3,2.5,1.7c0.9,4.7,1.9,9.4,2.9,14.4c0.2-0.5,0.4-0.8,0.5-1.1c1.1-4.8,2.1-9.5,3.2-14.3
		c0.2-0.9,0.7-0.9,1.4-0.9c0.6,0,1.1,0,1.3,0.9c0.9,4.5,1.8,9.1,2.8,13.6c0.1,0.5,0.2,1.1,0.6,1.7c0.2-1.1,0.5-2.2,0.7-3.4
		c0.8-3.7,1.7-7.4,2.5-11.1c0.4-1.8,0.4-1.9,2.5-1.5c-0.8,3.1-1.5,6.2-2.3,9.3c-0.7,3-1.5,6-2.2,9c-0.2,0.8-0.6,1.2-1.5,1.2
		c-0.8,0-1.2-0.3-1.3-1.1c-0.9-4.8-1.9-9.6-2.9-14.4c0-0.2-0.1-0.4-0.4-0.6c-0.4,1.8-0.8,3.7-1.2,5.5c-0.8,3.2-1.6,6.4-2.3,9.7
		c-0.2,0.8-0.7,0.9-1.3,0.9c-0.6,0-1.2,0.1-1.4-0.8c-1.3-6.1-2.7-12.2-4.1-18.4C360.3,514.7,360.3,514.6,360.3,514.5z"/>
	<path d="M325.6,517.7c0,5.4,0,10.7,0,16.1c-0.6,0-1.2,0-1.8,0c0-6.4,0-12.8,0-19.2c1.8-0.5,2.1-0.4,3,1.2c2.6,4.7,5.2,9.5,7.9,14.3
		c0-5.2,0-10.4,0-15.6c0.7,0,1.2,0,1.9,0c0,6.4,0,12.8,0,19.2c-1.7,0.5-2,0.4-2.8-1.1c-2.6-4.9-5.2-9.8-7.8-14.7
		C325.9,517.8,325.8,517.8,325.6,517.7z"/>
	<path d="M506.5,473.2c1.4,0,2.9,0,4.3,0c0.3,0,0.5,0.3,0.8,0.5c-0.2,0.2-0.4,0.5-0.7,0.6c-1.9,0.5-2.6,1.3-2.6,3.4
		c0,6,0,12.1,0,18.1c0,1.6,0.8,2.4,2.4,2.8c0.4,0.1,0.7,0.4,1,0.6c-0.4,0.2-0.8,0.5-1.2,0.5c-2.7,0-5.4,0-8.1,0
		c-0.3,0-0.6-0.3-1-0.5c0.3-0.2,0.5-0.5,0.8-0.6c1.8-0.4,2.5-1.2,2.5-3.1c0-5.8,0-11.5,0-17.3c0-2.5-0.5-3.1-2.9-3.9
		c-0.2-0.1-0.4-0.4-0.5-0.6c0.2-0.2,0.5-0.4,0.7-0.5C503.6,473.2,505,473.2,506.5,473.2z"/>
	<path d="M427.6,524.1c-0.3,2.3-0.7,4.4-1.8,6.4c-2.6,4.8-9,5.1-12.1,0.6c-2.5-3.7-2.4-10.4,0.2-14c1.6-2.1,3.7-3.3,6.4-3
		c3.1,0.3,5,2.1,6.1,4.9C427.1,520.6,427.3,522.4,427.6,524.1z M425.1,524.1c0.1,0,0.2-0.1,0.3-0.1c-0.5-1.8-0.9-3.6-1.6-5.3
		c-0.7-1.7-2.2-2.8-4.1-2.8c-1.9,0-3.4,1.1-4.2,2.7c-1.8,3.6-1.8,7.3,0,10.9c0.8,1.7,2.3,2.7,4.2,2.8c1.9,0,3.3-1.1,4.2-2.7
		C424.8,527.9,425.2,526,425.1,524.1z"/>
	<path d="M442.1,524.5c3.2,2.4,2.3,6.2,3.7,9.2c-2.1,0.4-2.2,0.3-2.6-1.4c-0.3-1.3-0.5-2.6-0.8-3.9c-0.6-2.4-2.7-3.7-5-2.9
		c-0.3,0.1-0.5,0.7-0.5,1c0,2,0,3.9,0,5.9c0,0.4,0,0.9,0,1.4c-0.7,0-1.3,0-2.1,0c0-0.4,0-0.8,0-1.1c0-5.6,0-11.1,0-16.7
		c0-0.9,0.2-1.3,1.2-1.3c1.8,0,3.6-0.2,5.4,0c2.4,0.3,3.6,1.6,4,3.9c0.4,2.3-0.4,4.4-2.3,5.5C442.7,524.2,442.5,524.3,442.1,524.5z
		 M436.8,519.9C436.8,519.9,436.8,519.9,436.8,519.9c0,0.3,0,0.6,0,0.8c0,3,0.2,3.3,3.3,2.8c1.7-0.3,2.9-1.6,3-3.3
		c0.1-2-0.8-3.4-2.6-3.8c-0.9-0.2-1.9-0.2-2.8-0.1c-0.3,0-0.8,0.6-0.8,0.9C436.7,518.1,436.8,519,436.8,519.9z"/>
	<path d="M452.5,514.4c0.7,0,1.3,0,2.1,0c0,3,0,6,0,8.9c0.1,0,0.2,0,0.3,0.1c0.6-0.9,1.2-1.7,1.8-2.6c1.2-1.7,2.6-3.4,3.7-5.2
		c0.9-1.4,2-1.4,3.5-1.2c-1.7,2.2-3.3,4.4-4.9,6.5c-1.3,1.6-1.3,1.6-0.2,3.4c1.7,2.8,3.4,5.6,5,8.4c0.2,0.3,0.3,0.5,0.5,0.8
		c-2,0.5-2.3,0.4-3.2-1.2c-1.4-2.4-2.8-4.8-4.3-7.2c-0.2-0.3-0.4-0.6-0.7-0.9c-1,1-1.8,2-1.7,3.5c0.1,1.9,0,3.9,0,5.9
		c-0.7,0-1.3,0-2,0C452.5,527.4,452.5,520.9,452.5,514.4z"/>
	<path d="M344.9,514.4c3.1,0,6,0,8.9,0c0.3,1.8,0.3,1.9-1.4,1.9c-1.5,0-3,0-4.6,0c-0.7,0-1,0.3-1,1c0,1.5,0,3,0,4.6c0,0.7,0.2,1,1,1
		c0.9,0,1.8,0,2.8,0c0.9,0,1.8,0,2.7,0c0.6,1.7,0.4,2-1.3,2c-1.4,0-2.8,0-4.2,0c-0.7,0-1,0.2-1,1c0,1.7,0,3.4,0,5.2
		c0,0.8,0.3,1,1.1,1c1.6,0,3.2,0,4.8,0c1.7,0,1.7,0,1.5,1.9c-3.1,0-6.2,0-9.4,0C344.9,527.3,344.9,520.9,344.9,514.4z"/>
	<path d="M402,533.8c-0.8,0-1.3,0-2.1,0c0-1.6-0.1-3.2,0-4.8c0.2-2.4-0.4-4.6-1.6-6.7c-1.3-2.3-2.3-4.7-3.5-7.1
		c-0.1-0.2-0.2-0.4-0.3-0.7c2.1-0.5,2.2-0.4,2.9,1.3c1.1,2.5,2.3,5.1,3.5,7.9c0.3-0.7,0.5-1.3,0.8-1.8c0.9-2,1.8-4.1,2.8-6.1
		c0.8-1.7,0.8-1.7,3-1.5c-0.2,0.4-0.3,0.7-0.5,1.1c-1.5,2.9-3.1,5.9-4.5,8.8c-0.4,0.7-0.6,1.6-0.6,2.4
		C401.9,529,402,531.4,402,533.8z"/>
	<path d="M403.1,463.6c-7.4,0-14.8,0-22.1,0c0-0.1,0-0.3,0-0.4c7.4,0,14.7,0,22.1,0C403.1,463.3,403.1,463.5,403.1,463.6z"/>
	<path class="st0" d="M407.9,456.2c-0.4-2.5-2.3-4.1-3.2-6.4c0.5-0.3,1-0.5,1.5-0.8c6.7-3.2,12-7.9,14.9-14.8
		c4.1-9.7,2.1-18.4-4.8-26.1c-1.8-2-3.9-3.7-6.2-5.1c-8.8-5.3-17.7-10.4-26.5-15.5c-4.9-2.8-9.8-5.6-14.6-8.5
		c-1.5-0.9-2.8-2.2-3.9-3.5c-3.4-4.1-3.4-8.8-0.1-13c3-3.9,7.2-6.1,11.8-7.4c5.6-1.6,11.2-2,16.9-0.6c5,1.2,8,4.4,8.3,9.5
		c0.2,3,0,6-0.2,9c-0.2,3.1-0.4,6.2,0.3,9.3c1.1,4.7,4.2,7.1,8.8,7.8c4,0.6,8-1.2,10.2-4.8c2.2-3.6,2.4-7.4,1.4-11.3
		c-2.8-10.6-9.9-17.2-19.8-20.9c-0.5-0.2-1-0.3-1.5-0.5c-0.5-0.1-0.9-0.3-1.4-0.7c0.3,0,0.7,0,1,0c14.7,2,24.8,12.4,26.9,25.2
		c1.9,11.6-1.8,21.3-10.4,29.3c-1.1,1-1.2,1.3-0.1,2.4c8.5,8.6,9.3,21,2,30.5c-0.7,0.9-0.7,1.6-0.1,2.5c2.1,3.5,4,7.1,6.1,10.6
		c0.8,1.3,1.6,2.5,2.5,3.8C421.1,456.2,414.5,456.2,407.9,456.2z"/>
	<path class="st0" d="M355.6,393.5c0.3,0.3,0.5,0.5,0.7,0.8c2.8,3.6,6.3,6.3,10.2,8.6c12.3,7.1,24.6,14.1,36.9,21.2
		c2.4,1.4,4.7,3.1,6.3,5.5c2.4,3.6,2.4,7.3,0.1,10.9c-1.6,2.5-3.9,4.3-6.4,5.9c-0.6,0.4-0.9,0.2-1.2-0.4c-3.8-6.3-7.8-12.5-11.2-19
		c-3.1-5.9-7.9-8.5-14.3-8.9c-1.3-0.1-1.6,0.1-1.6,1.5c0,5.4,0,10.8,0,16.2c0,2.3-0.2,4.6-0.2,6.8c0,1.4,0.1,2.8,0.2,4.3
		c-0.3-0.3-0.7-0.6-0.9-0.9c-2-2.4-2.6-5.3-2.5-8.3c0.1-3.6,0.6-7.3,0.7-10.9c0.1-1.9-0.1-3.9-0.7-5.7c-2-6.1-8.8-8.8-14.7-6
		c-0.5,0.2-0.9,0.5-1.5,0.8C355.6,408.3,355.6,401,355.6,393.5z"/>
	<path class="st0" d="M402.3,448.9c-5.4,1.9-10.8,2.9-16.4,2.9c0.2-1.2-0.5-1.4-1.4-1.6c-1.7-0.4-3.3-0.9-4.9-1.5
		c-2-0.8-2.9-2.1-2.9-4.5c0.2-7.3,0-14.5,0-21.8c0-0.9,0-1.8,0-2.8c4.5,0.4,8.3,2,10.9,5.5c1.6,2.2,3,4.6,4.4,7
		c3.1,5.2,6.2,10.4,9.4,15.6C401.6,448,402,448.3,402.3,448.9z"/>
	<path class="st0" d="M394.1,352.5c1,0.2,2,0.3,2.9,0.5c8.8,2,16.1,6,20.9,13.9c2.3,3.8,3.8,8,3.7,12.6c-0.2,3.8-1.9,6.7-5.4,8.2
		c-3.5,1.5-6.9,1-9.9-1.4c-1.9-1.6-3.1-3.7-3.1-6.1c0-3.8,0.5-7.7,0.5-11.5c0.1-2.2,0-4.5-0.4-6.7c-0.9-4.8-4-7.6-8.5-9
		c-0.2-0.1-0.4-0.1-0.7-0.2C394.1,352.8,394.1,352.8,394.1,352.5z"/>
	<path class="st0" d="M355.5,351.5c7,0,14,0,21,0c-8.2,2.5-15.5,6.4-21,13.7C355.5,360.4,355.5,356,355.5,351.5z"/>
	<path class="st0" d="M464.7,474.7c2.2-0.2,4.2,0.5,5.1,2.8c0.6,1.7,0.6,3.4-0.1,5c-0.5,1.3-1.5,2.2-3,2.3c-1.3,0.2-2.6,0.2-3.9,0.2
		c-0.9,0-1-0.6-1-1.3c0-2.1,0-4.2,0-6.3C461.8,474.9,462,474.7,464.7,474.7z"/>
	<path class="st0" d="M522.2,486.2c0-2.9,0-5.8,0-8.7c0-2.5,0.3-2.7,2.7-2.8c2.7-0.1,5.2,0.4,7.1,2.4c1.5,1.5,2.2,3.5,2.4,5.5
		c0.5,3.5,0.5,7.1-0.6,10.6c-1.1,3.2-3.6,5-6.9,5c-0.8,0-1.7,0-2.5,0c-1.4,0-2.1-0.6-2.1-2C522.2,492.9,522.2,489.5,522.2,486.2
		C522.2,486.2,522.2,486.2,522.2,486.2z"/>
	<path class="st0" d="M355.5,439.7c2.3,2.2,4.4,4.6,6.9,6.5c3.5,2.7,7.4,4.8,11.9,5.5c0.3,0.1,0.8,0.6,0.8,1c0.1,1.1,0,2.3,0,3.5
		c-6.5,0-13.1,0-19.6,0C355.5,450.7,355.5,445.1,355.5,439.7z"/>
	<path class="st0" d="M429.9,478.4c1,3,2.1,6,3.1,8.9c0.3,0.9,0.1,1.3-0.9,1.3c-1.6,0-3.2,0-4.8,0c-0.8,0-1.3-0.3-1-1.2
		c1.1-2.9,2.2-5.8,3.3-8.7C429.6,478.6,429.7,478.6,429.9,478.4z"/>
	<path class="st0" d="M303.5,478.5c1,3,2.1,6,3.1,9c0.2,0.7,0,1.1-0.8,1.1c-1.7,0-3.4,0-5,0c-0.6,0-1.2-0.3-0.9-1c1.1-3,2.2-6,3.3-9
		C303.3,478.5,303.4,478.5,303.5,478.5z"/>
	<path class="st0" d="M425.1,524.1c0.1,2-0.3,3.8-1.2,5.5c-0.9,1.7-2.3,2.7-4.2,2.7c-1.9,0-3.3-1.1-4.2-2.8c-1.8-3.6-1.7-7.3,0-10.9
		c0.8-1.7,2.2-2.7,4.2-2.7c1.9,0,3.4,1,4.1,2.8c0.7,1.7,1.1,3.5,1.6,5.3C425.3,524,425.2,524,425.1,524.1z"/>
	<path class="st0" d="M436.8,519.9c0-0.9-0.1-1.8,0-2.7c0-0.3,0.5-0.9,0.8-0.9c0.9-0.1,1.9-0.1,2.8,0.1c1.9,0.4,2.8,1.8,2.6,3.8
		c-0.1,1.7-1.3,3.1-3,3.3c-3.1,0.5-3.3,0.3-3.3-2.8C436.8,520.5,436.8,520.2,436.8,519.9C436.8,519.9,436.8,519.9,436.8,519.9z"/>
</g>
</svg>
